<?xml version="1.0" encoding="UTF-8"?>
<!DOCTYPE svg PUBLIC "-//W3C//DTD SVG 1.1//EN" "http://www.w3.org/Graphics/SVG/1.1/DTD/svg11.dtd">
<!-- Creator: CorelDRAW 2019 (64 Bit) -->
<svg xmlns="http://www.w3.org/2000/svg" xml:space="preserve" width="50mm" height="60mm" version="1.1" style="shape-rendering:geometricPrecision; text-rendering:geometricPrecision; image-rendering:optimizeQuality; fill-rule:evenodd; clip-rule:evenodd"
viewBox="0 0 5000 6000"
 xmlns:xlink="http://www.w3.org/1999/xlink">
 <defs>
  <style type="text/css">
   <![CDATA[
    .fil36 {fill:#1A1546}
    .fil6 {fill:#1B125E}
    .fil0 {fill:#1B1262}
    .fil34 {fill:#1B134C}
    .fil27 {fill:#1B1456}
    .fil23 {fill:#1C1354}
    .fil30 {fill:#1C135B}
    .fil12 {fill:#1D1261}
    .fil33 {fill:#231B54}
    .fil35 {fill:#24194A}
    .fil2 {fill:#271557}
    .fil37 {fill:#29244A}
    .fil38 {fill:#363149}
    .fil3 {fill:#54114D}
    .fil17 {fill:#681549}
    .fil18 {fill:#781649}
    .fil8 {fill:#871849}
    .fil24 {fill:#871A55}
    .fil21 {fill:#92154F}
    .fil20 {fill:#981948}
    .fil16 {fill:#A9264A}
    .fil19 {fill:#AD1B54}
    .fil7 {fill:#B91C46}
    .fil31 {fill:#BBAF52}
    .fil26 {fill:#C8B747}
    .fil4 {fill:#CA1D45}
    .fil25 {fill:#CAB638}
    .fil15 {fill:#CBB629}
    .fil11 {fill:#CC1D3C}
    .fil9 {fill:#CC2243}
    .fil32 {fill:#D0B64D}
    .fil5 {fill:#D21F3D}
    .fil28 {fill:#D3C973}
    .fil1 {fill:#D41D3A}
    .fil22 {fill:#D4B736}
    .fil14 {fill:#D6B726}
    .fil29 {fill:#D6CE8C}
    .fil13 {fill:#EDA3B1}
    .fil10 {fill:#F4A3AF}
   ]]>
  </style>
 </defs>
 <g id="Camada_x0020_1">
  <metadata id="CorelCorpID_0Corel-Layer"/>
  <g id="_2667294949408">
   <path class="fil0" d="M2056.6 4970.09c-119.42,-84.81 -146.04,-263.34 -138.71,-444.5 80.58,4.44 -12.03,22.56 148.05,20.43 50.04,-0.66 115.02,13.23 152.2,1.01 0.14,65.63 -38.98,182.35 -61.34,235.73 -16.06,38.34 -25.58,70.74 -42,103.69l-42.97 67.91c-8.56,10.27 -7.47,8.61 -15.23,15.73zm-1074.71 -476.88c-0.17,-76.08 -8.56,-166.24 11.78,-237.05 30.58,31.42 48.31,61.85 76.66,93.07 29.14,32.07 64.69,58.24 87.89,88.49 -65.32,18.86 -115.51,36.11 -176.33,55.49zm1124.07 -77.55c-369.82,-277.32 -125.68,-561.31 64.37,-245.62 56.53,93.89 62,208.04 56.4,334.94l-120.77 -89.32zm-1311.78 704.44c191.91,29.39 310.32,20.03 487.4,-42.99 145.9,-51.9 278.23,-103.78 363.55,-192.08 25.35,24.26 33.61,59.7 50.62,87.22 64.61,104.55 119.92,148.62 257.73,150.45 285.61,3.77 288.86,-3.1 406.81,-142.62 50.12,-59.29 135.91,-294.17 141.62,-397.5 5.44,-98.25 1.11,-408.19 -91.39,-440.06 11.28,53.14 64.77,133.31 37.32,187.08 -11.74,-51.76 -15.58,-114.58 -41.26,-160.62l-80.81 -123.94c-9.62,-7.52 -23.27,-14.85 -26.55,-26.1 -5.93,-20.34 -1.2,0.01 2.76,-11.23 8.73,-24.65 0.01,-6.84 -49.08,-45.66 -126.08,-35.76 -138.25,-24.98 -272.76,-16.52l-145.54 17.34c-93.23,15.4 -183.32,76.08 -215.24,138.37 -51.64,100.71 24.53,197.81 53.53,262.18 -32.62,22.43 -31.73,10.99 -42.71,58.35 -21.28,91.87 -25.72,177.14 -23.95,271.01 -62.62,-18.64 -134.85,-52.85 -214.57,-73.31 -70.38,-18.07 -168.83,-37.87 -205.66,-82.45 128.68,-56.5 -20.19,75.92 330.27,-51.92 158.59,-57.85 28.59,-101.76 -28.03,-141.98 -96.89,-68.8 -173.16,-154.39 -238,-260.3 -91.32,-149.15 -144.28,-293.68 -186.49,-479.33l-18.53 -78.27c-25.21,-209.75 5.04,-196.47 -178.94,-160.09 -52.64,10.42 -110.65,28.33 -146.71,57.2 -21,162.15 95.67,348.94 83.11,438.56 -39.06,38.86 -48.99,19.28 -64.13,82.16 -8.46,35.13 -15.66,82.25 -20.36,115.31 -21.33,149.71 -59.36,735.77 3.5,785.81 37.78,30.09 130.42,-38.05 157.82,-59.59 28.77,-22.61 9.16,-22.85 52.76,-20.57l8.36 -53.33c44.54,6.46 81.1,28 127.81,42.13 41.64,12.58 90.55,22.8 134.29,33.89 320.33,81.25 105.53,232.01 -130.33,190.42 -164.55,-29.01 -162.51,-63.24 -214.45,-107.88 -41.83,5.45 -83.51,22.76 -116.25,47.51 -12.92,9.77 -5.51,3.15 -16.6,13.37 -37.28,34.35 3.44,11.54 -31.69,19.35 -37.98,8.45 -47.28,60.97 -52.18,102.12 37.06,14.94 44.04,28.41 77.1,43.77 23.02,10.71 53.99,15.25 75.85,24.74z"/>
   <path class="fil1" d="M1613.47 906.76c-17.34,-0.09 -42.69,0.25 -58,8.76 -19.54,10.85 -20.3,5.89 -15.57,34.03l0.45 27.71c-13.31,2.54 -17.53,3.77 -29.28,6.33l-16.73 3.46c-38.78,9.85 -20.86,-2.16 -40.96,23.17 23.09,16.17 49.76,17.03 80.01,17.43 20.92,0.28 51.18,-3.19 67.1,0.85 -42.41,14 -50.45,5.16 -67.54,51.67 36.75,2.19 49.67,-4.35 73.56,12.28 2.08,47.37 -23.1,56.24 -65.99,57.98 -50.6,13.33 -142.18,151.01 -174.7,216.92 -47.58,96.44 -69.71,220.94 -56.5,338.64 28.76,-4.82 41.9,-16.37 60.03,-33.58 -1.84,45.54 -21.2,97.5 -25.28,159.93 -19.96,304.43 77.93,390.84 96.53,486.49 -105.73,-61.99 -253.08,-288.23 -258.82,-291.27 -33.74,14.86 -2.03,-0.25 -33.35,24.9 -63.65,51.15 -63.77,24.11 -121.99,35.74 16.51,35.3 34,28.38 23.73,71.97l-9.06 66.32c0.82,36.37 40.8,91.65 53.76,124.88 48.77,1.79 22.13,1.53 31.86,-7.17 -4.67,-24.55 -10.55,-28.2 -18.04,-53.74 -8.14,-27.74 -9.49,-48.53 -10.63,-80.23 33.84,17.2 45.51,44.84 60.78,105.41 39.45,13.41 32.6,9.78 75.27,1.51 13.38,53.45 19.91,42.77 34.65,50.79 36.36,19.76 82.02,47.21 112.52,52.5 54.28,9.41 -7.71,-9.06 21.28,3.15 32.86,13.82 3.53,16.32 36.87,34.88 44.56,24.8 -19.93,-21.4 26.25,9.25 16.9,11.21 20.99,32.73 34.93,45.12 52.37,46.54 -10.66,-28.54 49.43,16.16 22.04,16.4 15.76,33.86 38.37,52.79 -7.59,29.66 11.65,14.54 -18.15,34.14 19.87,-29.08 8.24,8.51 71.32,4.66 39.2,-2.39 61.43,-6.47 106.41,-5.21l146.07 -65.03c35.65,-10.73 35.44,-14.65 76.34,-14.83 -10.93,15.48 -14.97,21.77 -15.34,45.65 70.05,5.04 61.68,-30.6 141.79,-28.04 114.88,3.66 36.29,-36.5 155.65,-32.97 0.73,6.24 -19.5,70.5 74.88,34.14 10.16,-26.65 13.51,-69.14 -30.15,-82.23l11.69 -45.75c12,-156.85 9.69,-18.7 20.21,-99.97 2.4,-18.53 -9.43,-121.64 -1.48,-139.52 8.59,-19.34 27.83,-19.12 30.66,-25.38 0.79,-26.84 -1.58,-42.06 5.47,-66.89 8.05,-28.4 12.82,-13.16 10.77,-77.48 -14.26,-4.49 -29.88,-12.24 -37.8,-19.66 -7.72,-7.22 -21.37,-32.35 -21.95,-38 -2.28,-22.79 11.03,-34.4 26.95,-55.72l22.13 -27.7c-1.92,-68.8 -15.85,-106.58 -36.02,-153.11 12.19,-8.02 14.34,-7.93 22.98,-16.77 20.11,-20.5 -5.74,19.39 13.31,-19.77 -2.58,-1.85 -5.89,-3.62 -8.24,-4.86l-15.98 -8.56c-61.52,-28.35 -6.91,9.69 -82.94,-46.49 -58.9,-43.55 -28.06,-2.7 -49.97,-77.14 1.99,-0.96 5.05,-1.16 6.45,-1.56l45.22 -16.72c-41.54,-67.26 -38.47,-12 -47.82,-115.16 -52.53,-3.37 -77.51,-28.87 -94.73,-73.04l100.64 24.56 -6.73 -46.5c26.46,-8.69 -10.77,5.34 18.1,-1.24 17.68,-4.02 7.67,0.8 23.13,-8.39l-13.15 -35.53c-18.55,-31.83 -27.6,-20.38 -43.17,-65.96 53.02,9.34 62.53,52.84 87.3,47.78 2,-16.81 -25.73,-56.13 -42.24,-69.31 33.75,5.55 68.47,36.09 87.78,62.31 11.68,-25.36 -49.13,-82.71 -60.81,-133.95 52.32,20.63 20.96,31.35 93.56,35.71 -20.07,-81.41 -103.91,-122.74 -152.95,-169.33 112.13,9.95 159.76,107.13 204.37,162.85 26.29,-5.29 10.54,4.27 17.14,-25.9 -38.73,-69.19 -65.02,-115.96 -121.61,-162.57 -35.21,-29 -140.87,-101.43 -195.5,-98.72 -41.16,9.44 -23.47,0.09 -56.97,16.31l-64.11 30.17c-2.96,0.85 -5.08,1.57 -8.24,2.26 -43.25,9.39 -354.35,1.76 -369.21,-0.61z"/>
   <path class="fil2" d="M767.82 938.08c14.57,38.42 -10.68,22.39 88.01,32.44 63.25,6.44 27.72,-9.65 97.22,-11.06 -7.45,42.43 -13.15,97.98 -32.48,131l-39.16 0.88c-11.13,55.53 -18.78,-23.85 -33.61,91.25 -5.92,45.97 -61.74,114.69 -88.53,274.41l-5.6 67.73c26.47,18.37 44.05,19.01 36.28,55.31 -9.88,46.11 18.5,199.3 38.67,253.02 15.2,40.48 35.09,72.92 21.61,97.48 -0.97,-25.15 -4.96,-30.48 -9.4,-52.28 -67.69,0 -19.26,-4.32 -32.38,18.73l34.91 85.94c4.49,26.74 -0.02,-0.39 -9.87,32.34 37.17,15.48 17.45,-11.35 33.68,36.6 5.71,16.85 3.52,8.53 14.81,23l88.37 180.73c30.43,33.16 47.45,79.41 63.38,119.66l107.24 178.05 80.69 124.9c41.5,38.62 18.66,87.28 78.59,147.63 41.2,40.89 8.78,109.74 15.89,183.24l56.25 187.43 50.87 120.07c10.03,46.66 28.74,93.68 48.41,138.38 27.16,61.71 53.36,67.03 76.55,101.52 2.69,0.02 31.54,-3.07 49.03,-6.28 -13.31,-34.6 -4,-14.43 -18.27,-34.41 -6.3,-8.8 -14.93,-14.33 -24.49,-25.27l-37.74 -80 3.13 -16.51c-30.98,-26.56 -102.97,-253.05 -101.69,-270 -8.77,14.49 0.01,9.84 -14.42,5.95 -15.83,-43.05 -38.43,-90.67 -42.97,-136.87 -2.96,-30.15 -4.03,-48.73 20.8,-64.29 12.79,-8.01 27.28,-8.36 32.77,-11.35 46.34,-25.25 24.17,15.23 26.31,-41.55 -48.18,-55.02 -5.95,-3.13 -34.55,-22.54 -3.2,-2.17 -28.15,-41.43 -35.27,-49.17 -41.7,-45.38 -65.02,-34.16 -64.28,-124.77 -10.65,-8.14 -9.18,-5.67 -17.52,-14.28l-194.19 -313.77c-12.96,-33.23 -52.94,-88.51 -53.76,-124.88 -27.74,-14.27 -25.41,-18.22 -33.53,-49.84 -15.82,-11.55 -9.89,-4.51 -22.09,-20.66 -2.86,-3.78 -8.25,-14.35 -10.21,-18.4 -71.68,-148.39 -145.38,-331.77 -162.41,-489.15 -4.58,-42.22 -5.43,-75.53 -3.45,-118.06 1.76,-37.56 -0.79,-70.53 20.56,-99.82 13.4,-114.5 94.62,-252.42 160.89,-328.69 70.9,-81.6 165.14,-167.78 281.18,-218.86 128.52,-56.59 235.32,-89.04 410.49,-94.41 75.21,-2.3 372.22,11.19 429.46,70.03 54.63,-2.71 160.29,69.72 195.5,98.72 56.59,46.61 82.88,93.38 121.61,162.57 23.56,22.64 16.17,-30.66 20.26,30.99l48.14 1.86c-0.99,38.31 -12.59,36.43 34.6,77.65 28.21,24.65 -8.13,3.99 29.48,23.25l10.02 -12.4c27.07,-39.66 4.81,-23.27 34.16,-48.26 18.04,-12.34 24.48,-24.82 40.29,-43.83 77.01,-92.54 228.86,-251.37 345.49,-263.64 41.74,-5.49 110.4,-42.82 166.77,-30.33 47.24,10.47 -9.39,7.69 49.04,17.29 105.95,17.4 56.21,-2.06 220.85,33.79l-141.63 -0.76c100.02,-1.26 308.88,86.56 398.91,120.8 54.36,20.69 27.62,-28.3 115.27,42.72 18,-1.94 -2.21,-6.02 23.3,-13.98 98.61,53.26 325.09,277.21 347.31,412.1 26.83,30.26 32.45,88.93 33.69,127.45 11.69,363.64 -335.27,439.62 -580.87,342.03 -402.12,-159.81 -339.44,-360.17 -511.1,-551.52l-30.99 -40.68c-46.02,-9.98 -69.22,-46.09 -155.6,-49.31 -63.76,-2.38 -128.43,15.96 -164.77,44.01 66.35,29.36 209.36,-57.81 332.77,73.02 40.6,43.05 137.44,236.95 144.34,286.64 -64.36,-20.38 -61.21,-81.19 -106.8,-110.66 -16.06,51.61 61.95,30.71 30.71,134.74 25.58,26.01 140.63,133.16 141.05,133.96 31.81,40.21 28.26,47.13 77.49,63.94 35.15,12.02 130.08,31.3 69.96,65.57 -13.59,7.75 -26.69,10.24 -47.26,11.34l-9.55 59.7c-12.22,3.33 -29.1,7.09 -40.22,11.08 -17.25,6.19 -5.63,0.7 -19.79,8.62 -14.28,7.97 -9.21,4.89 -18.64,13.33 109.57,8.5 97.29,1.46 133.98,40.54 0.97,1.03 3.75,3.57 4.59,4.42 0.88,0.91 3.03,3.41 4.99,4.52 56.42,-23.9 104.2,-89.06 204.73,-112.39 37.06,-6.95 61.26,-20.47 112.96,-23.21 49.3,-2.61 82.09,-1.88 131.3,-7.66 115.09,-13.51 143.79,-57.91 203.18,-69.94 135.07,230.29 -170.53,547.63 -260.53,592.25 -16.9,8.39 -19.58,7.46 -37.85,16.63 -71.78,36.03 -316.35,191.07 -344.48,221.83 -0.14,69.46 9.32,18.77 -83.61,89.09 -37.26,28.18 -97.04,33.19 -107.65,38.6 -28.66,14.57 -9.05,3.55 -21.56,33.98 -16.38,39.82 6.86,27.63 -37.33,36.41l-15.41 -2.82c-23.9,57.48 1.15,8.76 16.51,39.59 3.77,7.54 11.23,-0.13 4.18,27.05l-9.5 16.22 -11.07 50.55c-1.72,36.79 -24.74,74.95 -41.68,106.42l-60.11 124.87c-6.73,12.67 -20.49,30.68 -25.41,38.89 -123.68,206.6 -90.86,169.13 -290.6,116.61 -23.32,-6.13 -34.29,-11.36 -55.84,-19.28 -89.51,-32.89 -38.22,-5.18 -84.58,-43.06l-13.64 -10.91c-50.57,59.12 -54.63,-34.01 -54.15,91.15l47.8 -3.9 27.36 -30.5 200.32 65.66c-13.67,35.5 -50.46,50.15 -95.04,54.11 -65.51,5.81 -102.08,-14.02 -139.44,-12.59 -33.96,-8.52 -28.88,-10.37 -64.08,-4.72 -11.02,1.78 -2.01,4.88 -22.5,5.06 -25.2,0.23 -8.85,10.64 -26.23,-8.38 -45.38,-16.62 -44.67,-7.86 -73.89,-41.82l49.66 -28.85c-6.56,-15.07 -36.5,-7.54 -57.37,-6.84 -28.01,2.56 -88.31,27.85 -120.75,38.57 -47.13,15.58 -83.79,30.42 -126.07,42.7 -87.82,25.5 -176.48,53.78 -270.53,68.9l-8.32 22.8c-135.6,4.21 -135.09,60.37 -203.49,-38.52 -32.46,-46.92 0.16,0.66 -22.53,-62.09l-69.76 -7.64 3.16 38.19c35.77,13.54 24.74,14.01 39.74,42.29 20.67,36.81 49.2,74.94 84.04,94.73 54.83,4.8 122.5,-16.12 176.92,-25.1l116.59 -25.6 240.67 -71.84c13.98,-7.17 71.24,-28.23 88.57,-30.89 25.9,-4 49.3,14.47 77.42,30.14 31.65,11.62 77.75,22.82 96.13,46.96 24.01,53.5 -27.57,65.91 -1.07,137.02 26.41,70.88 45.81,61.84 124.64,65.47l-35.97 -213.2 129.83 10.01c111.49,-6.64 141.91,-71.64 208.77,-64.68 43.48,-24.88 60.19,-34.03 96.09,-68.56l37.52 95.68c83.13,3.41 70.37,-94.67 9.26,-117.06l-29.22 -9.14c26.42,-47.39 61.83,-98.86 86.73,-144.42 25.36,-44.84 59.99,-111.18 75.65,-157.47l26.06 9.06c32.27,-47.43 -17.8,-33.74 18.56,-118.47 8.51,-27.41 21.31,-105.59 29.37,-117.27 25.34,-36.72 71.84,-32.17 101.9,-30.29l-7.67 -23.06c31.05,-9.12 37.22,-18.09 66.89,-28.83 22.56,-17.91 126.36,-81.88 155.4,-92.92 43.63,15.49 137.51,85.6 187.68,117.9 46.52,29.94 147.13,108.5 198.52,124.65 9.36,-41.9 -15.18,-43.25 -98.79,-95.31l-24.77 -13.9c-57.77,-26.44 -9.97,-2.51 -66.59,-41.84 -1.76,-1.23 -4.18,-2.52 -5.96,-3.75l-68.29 -51.61c-33.43,-21.52 -103.12,-42.72 -75.04,-72.49l19.97 -6.31c127.94,-24.97 49.37,-25.56 111.09,-30.08 22.57,-1.65 16.41,2.26 27.58,1.08 3.32,-0.36 5.65,-0.3 8.75,-0.88l15.81 -5.84c2.08,-0.74 5.7,-2.04 7.42,-4.28l-86.66 -20.39c19.03,-22.25 49.31,-39.74 75.22,-59.65 34.7,-26.68 38.53,-47.34 96.08,-24.51 60.57,24.04 150.03,62.82 214.34,76.07 6.91,-61.06 74.97,-33.86 75.52,-95.02 -60.13,-8.01 -9.81,24.25 -88.19,31.74 -90.12,-76.7 -13.25,-108.27 -11.35,-126.95 -4.87,-19.74 -40.86,-71.71 -50.98,-82.23l13.98 -19.45 58.25 -90.2c25.9,-113.08 63.33,-123.84 54.22,-277.08l-28.96 -99.57c-6.74,-22.22 20.3,-44.31 36.69,-75.13 51.06,-96.03 63.92,-242.66 40.94,-341.7 -37.19,-160.21 -191.73,-308.12 -208.16,-338.82 -10.66,-6.13 -4.83,-2.02 -15.81,-11.16 -0.26,-0.22 -12.09,-11.57 -13.98,-13.37 -12.5,-11.89 -9.16,-10.33 -24.45,-21.93 -62.94,-62.95 -190.14,-154.32 -283.11,-198.51 -26.55,-19.18 -59.81,-25.5 -89.11,-47.46 -114.69,-32.79 -170.66,-62.34 -311.65,-75.27l-105.53 -2.17c-52.51,5 -105.45,12.36 -154.49,23.58 -48.38,11.08 -88.91,33.19 -134.34,41.89 -13.62,11.88 -141.45,88.71 -161.56,100.17 -18.27,26.7 -50.54,57.21 -74.5,80.05 -35.11,33.46 -45.34,57.68 -80.47,84.73l-45.41 57.49c-41.85,-17.45 -51.01,-36.71 -72.23,-85.96 -16.66,-38.67 -40.39,-67.16 -58.45,-97.13 -37.55,-38.52 -48.83,-54.84 -89.8,-86.38 -29.4,-22.64 -76.64,-44.52 -105.43,-68.79l-141.39 -54.47c-107.46,-19.32 -182.47,-39.61 -303.32,-49.5l-103.59 0.66c-77.52,2.89 -119.65,8.36 -190.54,23.07 -31.5,6.53 -58.96,6.34 -85.49,15.78 -24.15,8.6 -47.13,20.26 -75.75,28.74l-89.49 33.44c-13.85,-39.01 -65.95,-158.9 -118.37,-160.95 -42.08,4.22 -52.16,2.69 -76.37,29.77l-45.95 60.15c17.66,17.71 66.72,39.92 33.62,101.2 -20.14,37.3 -3.74,-19.36 -18.72,25.73 93.93,20.28 61.12,-69.98 114.64,0.98 -18.43,48 -28.36,29.87 -79.05,33.56 -48.35,3.52 -39.93,19.52 -74.75,43.42 -1.88,-1.63 -3.94,-4.23 -5.15,-5.38l-27.42 -21.89c-63.68,-40.71 -49.05,-66.62 -70.3,-76.11 -117.05,-7.26 -73.5,50.68 -101.12,82.17z"/>
   <path class="fil0" d="M3684.37 3927.89l-51.23 7.65 -110.5 -12.65c-49.05,84.34 -36.72,51.5 -28.23,130.15 7.07,65.46 -8.43,91.16 9.39,167.17 25.95,110.76 62.7,165.4 95.9,252.85 -68.51,41.07 -153.97,15.17 -227.38,88.49 -46.28,46.22 -40.81,54.98 -30.95,115.27 7.77,47.43 8.53,91.5 23.9,135.14 54.76,155.51 187.27,243.42 349.19,288.64 234.77,65.55 332.31,58.56 499.94,-54.2 77.72,-52.27 79.74,-122.28 118.01,-194.81 29.89,-56.63 43.4,-204.46 38.42,-255.61 -94.82,-31.98 -75.55,15.15 -156.96,194.96 -31.28,69.09 -115.54,199.83 -175.65,206.84 -95.91,11.17 -181.77,-80.08 -248.08,-126.14 -47.35,-32.88 -165.09,-142.84 -136.57,-236.75 73.27,-8.2 108.02,94.02 153.43,119.12 63.12,34.9 186.98,-0.12 235.97,-34.26 -7.9,-86.14 -105.82,-164.96 -148.35,-205.86 -52.43,-50.44 -39.08,-26.44 -68.7,-106.4 -21.52,-58.08 -29.15,-77.08 -31.9,-147.07 52.38,16.02 176.6,141.99 191.81,190.02 2.63,8.3 3.63,15.2 6.22,23.16l9.7 25.17 261.67 -34.26c3.13,-118.8 -19.08,-229.84 -9.5,-357.14 4.47,-59.36 9.98,-100.13 27.63,-157.32 31.41,-101.78 -39.61,-61.84 -62.58,-75.44 -62.11,-12.45 -51.93,-19.06 -76.9,-32.07 -29.66,-15.46 -42.97,-11.29 -93.57,-10.02 -32.1,37.61 -34.94,55.74 -48.57,108.03 -5.12,19.65 -9.39,40.83 -14.85,59.98 -22.51,78.89 -56.84,52.82 -80.5,38.66 -29.65,-17.74 -97.49,-47.49 -103.22,-83.63 -3.09,-19.5 -97,-18.2 -116.99,-27.67z"/>
   <path class="fil3" d="M2888.9 2827.13c-99.71,-27.13 -4.26,-143.96 -43.67,-233.1l-7.13 50.02c-7.17,-81.9 -31.54,-55.01 -92.3,-69.2 -16.79,-33.14 -30.02,-50.44 -49.08,-75.33 58.34,-63.56 224.97,-77.58 256.36,35.27 28.95,104.1 -12.51,249.15 -64.18,292.34zm-650.77 -1551.41c40.03,18.9 71.31,69.31 80.69,111.66 -42.61,-18.99 -19.39,-21.08 -79.71,-34.9 10.68,13.36 2.84,8.11 15.19,21.49 20.51,22.21 19.24,10.78 45.27,47.17 27.62,38.59 32.28,72.38 63.17,81.87l9.01 0.69c1.13,0.32 12.2,7.53 12.21,7.54 3.4,-35.74 14.08,-52.34 12.04,-89.49 -0.86,-15.81 -13.82,-104.55 24.03,-90.34 63.27,23.76 5.45,82.06 4.56,117.65 -1.05,42.45 23.82,21.35 10.66,81.53 -3.4,15.58 -23.68,50.89 -27.2,68.87 -8.8,45.08 7.81,35.64 -2.6,85.86 -9.87,47.63 -23.58,17.98 1.6,68.78 15.38,30.98 47.93,104.42 23.62,137.7 -14.98,-28.79 11.4,-39.72 -9.26,-82.5 -2.82,-5.87 -23.35,-32.8 -46.81,-22.41 -12.04,47.14 7.09,24.9 -4.81,77.71 -0.32,1.43 -2.45,7.07 -2.74,5.9 -0.27,-1.16 -1.24,4.55 -3.17,5.5 -2.75,24.73 -11.59,50.37 -7.12,73.64l21.42 35.08c1.29,1.21 4.31,3.3 5.39,4.23l11.5 8.04c-15.29,117.04 71.4,195.54 104.28,274.02 13.96,-105.3 67.82,-214.57 58.31,-309.43 -6.46,-64.41 -3.56,-106.4 -3.76,-174.73 -0.19,-61.83 -15.41,-115.49 -16.57,-162.23 -1.23,56.32 3.9,264.95 -25.79,306.66 -50.66,71.18 -6.34,36.74 -43.46,60.61 -12.52,-18.43 -8.46,11.93 -8.68,-30.11 -0.16,-28.65 -1.73,0.72 4.77,-21.86 42.34,-147.27 -22.01,-160.7 -28.04,-220.75 -6.37,-63.28 31.83,-23.52 45.07,-17.71 16.2,-137.04 -35.39,-214.35 -6.06,-274.73 26.41,10.78 -5.92,15.97 57.59,17.07 1.4,-85.2 -29.36,-114.03 -25.5,-216.49 26.49,18.43 22.1,16.11 34.55,46.76 21.12,52 16.9,-14.09 45.11,88.43 24.7,89.77 71.74,159.65 59.76,316.74 16,-20.1 1.01,-72.38 -22.46,-95.28 -1.07,116.44 4.23,216.6 -4.23,335.15 -1.07,15.01 -6.68,66.39 -5.21,77.46 7.66,57.49 2.54,5.2 14.15,34.31 17.05,42.73 -4.91,48.93 -9.9,95.01 -4.67,43.05 15.93,45.16 23.48,70.47 -16.85,18.12 -27.65,69.07 -36.72,91.53 -48.02,118.87 -29.82,138.51 -65.97,182.71 -29.05,35.52 -17.5,35.11 -36.16,81.28 -41.54,9.62 -71.03,21.06 -99.03,25.95 -97.85,17.1 41.63,-35.25 -182.97,25.57 -40.11,10.86 -40.61,22.18 -91.86,26.06 25.97,-39.9 67.5,-49.86 87.86,-92.59 -39.25,16.99 -190.99,106.1 -232.16,141.42 -74.45,63.84 63.34,40.61 -328.9,150.45 -43.32,12.13 -74.55,22.43 -114.46,32.9 -49.37,12.93 -56.23,18.57 -93.38,-7.02l-8.05 21.28c-2.14,56.78 20.03,16.3 -26.31,41.55 -5.49,2.99 -19.98,3.34 -32.77,11.35 -24.83,15.56 -23.76,34.14 -20.8,64.29 4.54,46.2 27.14,93.82 42.97,136.87 14.43,3.89 5.65,8.54 14.42,-5.95 -15.97,-36.07 -60.85,-161.27 5.99,-185.65 82.92,-30.24 -28.61,29.03 69.1,5.03l414.44 -111.15 345.32 -114 13.77 -11.07c2.18,-1.5 4.46,-3.29 6.87,-4.81 2.29,-1.45 4.46,-2.76 6.83,-4.09l33.52 -13.76c53.5,-20.13 224.96,-86.56 265.64,-114.53l75.44 -49.42c58.99,55.96 83.27,122.86 121.08,190.82 13.62,24.46 5.03,11.07 13.68,39.43 8.72,28.59 27.97,54.19 36.18,77.52 23.78,67.68 37.44,109.83 45.76,182.57 3.73,32.69 -0.72,80.19 -19.41,102.46 -17.68,21.05 -45.32,38.78 -57.06,53.09 -78.41,-7.95 -25.38,-3.32 -47.61,-15.25 -19.79,-10.61 -20.35,-15.91 0.84,-4.55 -30.86,8.62 -38.61,17.98 -69.27,27.35 -30.01,9.17 -35.09,8.86 -64.31,19.98 -50.07,13.33 -137.95,63.41 -190.48,58.59 -27.83,-2.55 -9.5,-10.25 -57.3,-5.12 -14.72,1.58 -38.73,9.4 -52.62,13.69 -80.81,24.96 -120.33,39.31 -166.15,86.43 -36.73,37.76 -212.53,57.96 -278.92,93.07 -33.77,24.41 -170.58,50.94 -205.74,54.74l0.03 -9.05c111.96,5.14 209.83,-25.8 315.63,-42.81 -47.08,4.72 -150.45,45.18 -207.01,58.21 -30.8,7.09 -77.94,20.99 -108.76,22.98 -72.31,4.64 -60.83,-16.42 -109.18,-34.19 9.56,10.94 18.19,16.47 24.49,25.27 14.27,19.98 4.96,-0.19 18.27,34.41 -17.49,3.21 -46.34,6.3 -49.03,6.28 18.51,8.95 34.19,18.86 57.29,24.44l-3.16 -38.19 69.76 7.64c22.69,62.75 -9.93,15.17 22.53,62.09 68.4,98.89 67.89,42.73 203.49,38.52l8.32 -22.8c-87.56,10.02 -186.75,76.35 -215.77,-68.8 15.82,-7.53 42.06,-18.2 66.12,-16.92 37.32,2 17.6,10.63 68.76,22.31 -16.42,5.72 -9.53,2.82 -20.93,19.53l56.06 3.01 -29.53 29.18c70.27,0.56 181.17,-17.75 228.13,-57.11 -18.41,-10.24 -37.37,-6.95 -64.18,-5.88 18.7,-24.8 -9.63,-0.16 15.86,-19.41 22.16,-16.74 4.61,-3.33 11.64,-3.47 -17.46,-5.28 -26.1,-14.69 -26.16,-14.72 -44.77,-24.12 52.98,-0.82 -23.96,-11.38 31.91,-38.12 48.02,-36.38 121.59,-54.95l345.99 -109.42c-1.63,0.52 -15.79,5.5 -18.57,7.26 -21.15,13.38 -11.86,6.83 -23.78,20.1 2.45,1.29 6.42,-0.13 7.82,2.87l52.55 -1.45c10.14,-2.82 31.64,-10.73 38.75,-10.55 -75.12,29.19 -74.05,35.95 -112.84,84.98l-17.06 21.98c52.94,-3.98 258.84,-77.6 283.55,-113.76 26.94,-39.42 -16.73,-20.09 60.01,-49.32 -9.39,-9.84 26.4,-47.08 -51.86,-15.62 23.38,-37.84 -15.32,44.47 4.39,-17.61 9.07,-28.59 149.07,-89.84 172.08,-88.6 12.23,36.8 15.42,57.43 10.52,95.72l-359.68 169.93c-8.67,4.06 -16.16,5.74 -26.01,10.17l-36.14 21.76c20.87,-0.7 50.81,-8.23 57.37,6.84l81.88 -24.7c-3.68,23.81 -20.96,85.19 -26.53,93.98l-31.12 1.39c17.38,19.02 1.03,8.61 26.23,8.38 20.49,-0.18 11.48,-3.28 22.5,-5.06 35.2,-5.65 30.12,-3.8 64.08,4.72 -13.84,-41.27 -1.01,-30.5 6.8,-76.68l-47.8 3.9c-0.48,-125.16 3.58,-32.03 54.15,-91.15l13.64 10.91c46.36,37.88 -4.93,10.17 84.58,43.06 21.55,7.92 32.52,13.15 55.84,19.28 199.74,52.52 166.92,89.99 290.6,-116.61 4.92,-8.21 18.68,-26.22 25.41,-38.89l60.11 -124.87c16.94,-31.47 39.96,-69.63 41.68,-106.42l-34.58 14.91 8.72 -44.45c-15.67,51.25 -211.64,376.37 -234.57,391.3 -56.7,36.94 -84.78,-27.75 -135.7,-45.85 44.67,-21.92 22.02,-38.69 25.7,-45.26 31.75,11.6 58.48,24.48 80.29,9.94l-68.6 -38.75 103.02 6.06c-20.42,3.49 -22.52,-5.45 -42.83,-21.3 2.13,-1.61 5.72,-2.51 7.43,-3.1l14 -4.8c69.66,-20.35 2.27,-32.56 70.95,-22.52 -23.06,-10.7 -99.42,-48.86 -112.87,-60.94 -0.81,-26.5 -1.02,-11.21 8.79,-24.01 6.31,-8.23 6.33,10.96 11.61,-9.19 0.93,-3.52 4.78,-2.55 6.92,-4.17 -40.72,-6.5 -36.19,2.4 -40.04,-34.95 40.57,14.55 88.72,59.25 144.52,36.13 -23.14,0.87 -6.52,3.3 -34.38,-5.35 -34.82,-10.8 -41.19,-21.47 -100.65,-33.11 24.51,-86.89 33.36,-165.73 7.16,-245.09l-10.36 -21.09c50.37,6.54 227.17,92.71 331.34,117.78l5.2 37.26 9.5 -16.22c7.05,-27.18 -0.41,-19.51 -4.18,-27.05 -15.36,-30.83 -40.41,17.89 -16.51,-39.59 -77.4,-19.81 -207.73,-67.23 -255.99,-99.73 3.53,-51.79 39.85,-81.4 57.7,-177 29.65,-158.78 -30.19,-249.38 -172.62,-296.41 -38.05,-12.56 -39.64,-26.62 -97.21,-11.64 -29.2,7.59 -51.01,20.93 -79.87,26.73 -31.02,-62.23 -21.68,-71.16 2.36,-131.76 56.84,-143.22 86.97,-338.77 81.06,-494.28 -17.25,-454.37 -178.13,-381.24 -32.87,-584.81 15.18,-49.31 57.87,-79.68 85.23,-149.41 -72.29,46.35 -104.08,111.62 -141.46,186.5l-34.67 60.15c-34.54,-50.18 -32.63,-26.86 -8.99,-88.01 -29.35,24.99 -7.09,8.6 -34.16,48.26l-10.02 12.4c-37.61,-19.26 -1.27,1.4 -29.48,-23.25 -47.19,-41.22 -35.59,-39.34 -34.6,-77.65l-48.14 -1.86c-4.09,-61.65 3.3,-8.35 -20.26,-30.99 -6.6,30.17 9.15,20.61 -17.14,25.9 -44.61,-55.72 -92.24,-152.9 -204.37,-162.85 49.04,46.59 132.88,87.92 152.95,169.33 -72.6,-4.36 -41.24,-15.08 -93.56,-35.71 11.68,51.24 72.49,108.59 60.81,133.95 -19.31,-26.22 -54.03,-56.76 -87.78,-62.31 16.51,13.18 44.24,52.5 42.24,69.31 -24.77,5.06 -34.28,-38.44 -87.3,-47.78 15.57,45.58 24.62,34.13 43.17,65.96z"/>
   <path class="fil4" d="M2705.66 1183.78c-145.26,203.57 15.62,130.44 32.87,584.81 5.91,155.51 -24.22,351.06 -81.06,494.28 -24.04,60.6 -33.38,69.53 -2.36,131.76 28.86,-5.8 50.67,-19.14 79.87,-26.73 57.57,-14.98 59.16,-0.92 97.21,11.64 142.43,47.03 202.27,137.63 172.62,296.41 -17.85,95.6 -54.17,125.21 -57.7,177 48.26,32.5 178.59,79.92 255.99,99.73l15.41 2.82 21.44 -45.07c-34.84,-31.87 -17.41,3.72 -56.71,-49.66l-67.74 11.18c-46.97,-68.55 -38.06,-54.29 -22.34,-119.41 3.4,-14.04 2.7,-18.97 5.46,-31.74 3.51,-16.24 1.7,-13.33 8.8,-26.88 72.79,-138.67 26.28,-150.5 65.12,-252.21 35.12,-91.94 108.01,-193.78 176.37,-251.13 13.46,-11.3 70.89,-59.41 75.78,-60.74 -70.22,4.51 -197.69,44.86 -269.63,9.31 33.08,-6.98 77.1,-2.69 102.04,-23.38 -2.27,-1.61 -6.08,-5.96 -7.5,-3.74 -1.41,2.2 -5.59,-2.8 -7.56,-3.44 -43.69,-14.3 -93.98,-9.64 -139.9,-29.37 8.72,-7.57 2.64,-11.67 47.86,-12.92l114.23 2.16c42.62,-3.69 29.82,6.41 38.15,-19.36 -81.06,14.72 -254.22,-41.87 -343.03,-102.29 87.06,26.5 286.97,88.81 390.35,59.32 -11.64,-24.68 -11.18,-20.74 -42.35,-34.27l-144.05 -78.08c-40.29,-24.21 -144.43,-103.41 -158.29,-137.93 67.77,32.25 296.33,213.48 435.68,204.98 -22.27,15.48 -175.38,-83.92 -198.49,-98.8 -41.17,-26.47 -151.58,-99.64 -169.48,-149.34 42.68,13.12 71.72,48.16 116.14,73.2 27.63,15.58 101.94,46.34 114.94,70.96 -0.42,-0.8 -115.47,-107.95 -141.05,-133.96 31.24,-104.03 -46.77,-83.13 -30.71,-134.74 45.59,29.47 42.44,90.28 106.8,110.66 -6.9,-49.69 -103.74,-243.59 -144.34,-286.64 -123.41,-130.83 -266.42,-43.66 -332.77,-73.02 36.34,-28.05 101.01,-46.39 164.77,-44.01 86.38,3.22 109.58,39.33 155.6,49.31 20.69,9.02 13.61,6.71 23.62,11.72 35.37,17.68 47.77,27.82 82.39,10.39 -4.2,-99.37 -10.38,-2.82 -37.84,-69.42 -22.86,-55.42 -5.63,-27.28 -45.12,-40.23l-2.13 -67.81c-78.84,7.8 -66.29,-57.19 -148.66,-17.86 -16.13,-28.97 23.55,-12.92 -18.7,-24.98 -24.91,19.47 -34,36.29 -54.65,38.55l-57.36 -10.13c12.16,-32.31 18.57,-67.7 46.6,-82.23l-105.58 153.72c-4.2,5.64 -15.21,17.67 -17.37,17.97 -22.12,3.02 13.87,8.89 -9.95,-4.85 -65.32,-37.67 53.05,-2.32 -14.38,-9.53 -34.18,29.32 1.14,19.91 -46.57,61.79 -1.71,1.49 -4.69,3.63 -7.2,5.21 1.13,-35.87 4.8,-52.78 13.85,-84.83 5.21,-18.41 7.47,-45.23 22.61,-48.15z"/>
   <path class="fil5" d="M4002.14 1540.22c-29.57,35.47 -51.98,39.43 -87.13,2.7l-327.96 -337.68c-43.33,-43.1 -126.24,-112.36 -86.56,-146.63 83.17,-71.84 663.97,286.92 501.65,481.61zm-1010.59 -654.68c-13.58,28.11 -19.41,26.21 37.15,53.08 35.52,16.88 29.48,5.09 71.66,14.14l60.07 21.39c21.26,18.77 9.33,41.74 5.48,67.05l50.83 11.03c-1.09,105.27 -21.22,105.31 35.2,161.6 73.37,73.22 -21.76,196.55 74.61,338.47 42.79,63.02 56.88,87.2 103.4,106.8 17.76,7.48 5.31,0.86 20.19,8.59 26.17,13.59 95.15,74.65 147.44,101.57 37.94,19.54 76.08,32.89 103.38,63.65l-89.61 -5.43c79.43,28.26 99.75,48.91 202.84,51.78l-59.32 39.31c47.49,24.92 163.21,48 239.13,-2.64l11.46 -8.4c1.27,-0.93 3.75,-3 5.64,-4.46l-7.11 -15.04c-4.82,-25.13 2.13,8.39 -1.8,-17.42 -1.17,-7.67 -1.06,-23.81 -25.48,-21.12 -13.48,1.48 -21.67,7.69 -40.43,12.67 -3.51,-4.45 -18.25,-16.72 -9.34,-24.51 -0.87,0.18 -29.27,5.35 -30.02,5.18 -37.19,-8.51 -7.16,8.58 -34.57,-19.39l92.7 -65.66c32.77,-17.45 13.75,2.78 62.38,-20.63 1.89,-0.91 4.34,-2.35 6.4,-3.26 2.22,-1.01 4.8,-2.11 7.16,-3.08 2.44,-1 5.13,-1.79 7.61,-2.75 78.82,-30.53 42.59,-86.73 104.77,-104.68 18.19,-5.24 -4.1,-64.66 26.93,-114.19l1.07 -42.02c-22.22,-134.89 -248.7,-358.84 -347.31,-412.1 -25.51,7.96 -5.3,12.04 -23.3,13.98 -87.65,-71.02 -60.91,-22.03 -115.27,-42.72 -90.03,-34.24 -298.89,-122.06 -398.91,-120.8l141.63 0.76c-164.64,-35.85 -114.9,-16.39 -220.85,-33.79 -58.43,-9.6 -1.8,-6.82 -49.04,-17.29 -56.37,-12.49 -125.03,24.84 -166.77,30.33z"/>
   <path class="fil0" d="M2674.42 3946.52c-54.18,44.41 -86.95,18.68 -133.91,67.79 -61.2,64 -41.18,12.31 -16.95,193.48 7.67,57.29 118.41,320.86 142.99,382.09 21.65,53.92 53.17,75.95 20.45,123.42 -66.69,96.76 -74.33,90.2 -141.29,210.25 -39.3,70.46 -52.09,44.95 -22.84,124.71l170.62 -63.55c29.86,-9.4 58.49,-16.2 72.31,-37 23.64,-35.53 -7.63,-46.49 44.84,-85.83 11.56,32.05 79.4,125.54 101.46,155.37 44.56,60.28 74.07,99.58 145.13,127.42 64.23,-27.22 209.14,-103.64 227.91,-159.95 -18.16,-34.21 -92.35,-92.06 -155.13,-190l-128.93 -209.64c29.91,-84.6 329.94,-460.16 402.42,-504.87 28.95,-17.86 54.56,-33.57 52.71,-68.81 -63.88,4.54 -174.34,24.69 -218.98,53.83l-57.25 27.4c-73.75,69.16 -203.21,206.43 -261.84,298.62 -27.41,-24.45 -84.75,-188.13 -95.01,-219.36 -21.36,-65.05 -44,-195.61 -70.86,-240.08l-77.85 14.71z"/>
   <path class="fil5" d="M1704.64 2988.61c87.28,-27.66 115.79,97.67 152.24,162.96 23.18,41.52 124.52,167.3 67.47,214.69 -122.38,101.65 -290.15,-243.92 -219.71,-377.65zm548.4 -270.37l-345.32 114 -9.04 43.25c-54.23,-3.07 -85.52,-14.79 -168.01,26 -46.65,23.07 -120.86,35.32 -175.38,43.16 21.81,72.88 -21.71,-51.51 12.93,21.7 1.25,2.65 4.98,10.33 5.68,12.99l-3.89 37.8c-0.28,1.67 -0.84,4.33 -1.05,5.99 -1.73,14.06 -2.57,21.27 2.43,38.38 13.66,46.66 5.8,13 20.52,36.67 21.68,34.83 12.37,58.53 23.25,91.52 10.04,30.43 32.44,28.97 -1.31,59.04 3.07,0.53 9.63,2.27 11.1,3.57l10.78 32.92c-30.99,12.59 -60.04,9.14 -93.47,9.14 -1.49,-2.7 -2.21,-6.71 -2.66,-8.83 -7.37,-34.67 0.84,-15.83 2.92,-29.7l-52.67 -12.86c1.98,22.01 7.25,56.73 13.44,78.55 10.6,37.4 17.03,26.99 16.59,72.48l-3.13 16.51c22.77,13.7 28.58,29.71 58.03,42.87 1.41,-51.44 0.77,-64.74 -23.27,-103.88 -3.87,-6.29 -37.93,-30.96 26.83,-52.37 81.95,-27.11 58.15,29.86 80.2,47.31l33.87 33.48c27.24,31.97 73.77,42.04 110.63,54.81 36.72,12.74 19.07,9.86 66.48,7.9 66.39,-35.11 242.19,-55.31 278.92,-93.07 45.82,-47.12 85.34,-61.47 166.15,-86.43 13.89,-4.29 37.9,-12.11 52.62,-13.69 47.8,-5.13 29.47,2.57 57.3,5.12 52.53,4.82 140.41,-45.26 190.48,-58.59 -17.69,-44.73 -6.83,-18.45 0.6,-43.63 1.78,-6.02 7.8,-24.34 11.39,-30.95 9.08,-16.7 31.38,-51.26 42.18,-66.58 -21.82,0.07 -6.03,7.55 -11.61,-16.58 -9.55,-41.32 15.1,-52.96 24.91,-61.61 -21.66,-19.2 -21.88,-10.15 -13.28,-23.35 4.52,-6.93 26.32,-26.85 31.62,-32.5 -36.27,-11.86 -28.16,20.77 -41.85,-14.65l-37.32 -24.79c-34.18,-31.29 -23.19,-40.39 -36.08,-72.21 -40.84,-100.83 -42.78,-71.83 -83.82,-103.65 -87.47,-67.84 -126.36,0.75 -248.69,14.76z"/>
   <path class="fil6" d="M3204.2 5913.19c217.35,49.83 211.07,-78.28 230.32,-148.15 77.53,3.69 24.42,-0.69 67.38,-18.52 31.11,167.56 282.37,226.93 387.63,114.04 29.73,20.28 68.34,19.71 103.17,10.31 47.4,-12.8 34.58,-33.76 35.67,-85.69 21.82,24.36 44.47,109.81 76.24,120.35 39.61,-1.77 85.55,-21.6 111.92,-43.68 8.01,-65.11 -3.13,-106.99 28.36,-163.84 1.48,1.89 2.82,4.8 3.5,6.25l6.25 13.07c17.54,45.35 28.44,139.22 93.13,191.77 35.41,-6.78 19.28,-8.92 48.38,-15.02 2.66,-68.39 -35.43,-109.4 -40.31,-196.31 -8.76,-155.93 7.81,-154.5 7.39,-207.02 -184.59,-24.13 -140.51,106.64 -221.21,176.83 -39.87,-76.47 -27.39,-168.89 -43.79,-261.8l-121.64 35.78c-8.21,48.49 3.61,88.28 10.54,137.05 -30.14,34.02 -51.8,14.67 -69.1,54.87 -15.04,34.89 -54.5,196.99 -112.67,219.79 -35.56,13.94 -159.71,-48.91 -175.18,-145.85 82.44,14.43 6.81,80.53 167.6,38.76 -16.8,-92.35 -96.95,-66.48 -103.56,-196.68 23.9,12.54 34.85,24.32 51.04,42.18l36.61 49.26c0.76,-1.55 3.01,4.3 4.83,6.49l102.09 -12.96c1.35,-102.63 -3.67,-134.69 11.88,-238.6l-45.63 -20.19c-29.85,-9.89 -22.88,-10.16 -62.42,-10.41l-34.01 92.16c-42.7,-14.03 -53.25,-36.53 -80.43,-45.39 -194.29,-63.3 -99.86,143.16 -74.9,221.4l-36.84 15.22c-77.79,23.1 -162.26,-12.77 -258.25,2.18 -6.88,10.71 -17.88,29.19 -24.58,39.27 -20.2,30.34 -14.99,4.86 -21.34,44.71l119.25 19.88c-16.02,42.3 -36.28,79.6 -71.79,92.35 -88.99,-75.97 -78.97,-264.4 -9.36,-365.35 45.05,24.28 29.53,77.14 42.61,130.71l93.33 6.78c116.07,-218.85 15.58,-171.27 -27.84,-184.08 -83.8,-24.74 -168.05,-73.24 -226.32,18.73 -68.43,107.98 -94.83,236.12 -36.2,366.81 19.46,43.37 39.93,56.36 58.25,92.54z"/>
   <path class="fil7" d="M2398.59 2198.01c3.47,-30.7 -7.53,-52.59 -17.22,-76.47 3.13,12.71 3.8,6.83 18.95,22.94 86.47,92.01 71.86,194.62 51.67,296.17 2.89,-44 -8.06,-30.95 -21.32,-40.04l-38.47 34.8c-24.93,17.58 -7.28,19.9 -63.1,27.32 3.91,-107.58 44.17,-47.42 38.77,-270.85 7.22,7.04 -0.76,5.56 12.74,9.4 0.97,0.26 4.64,0.1 5.5,0.24l12.48 -3.51zm-34.71 -322.01l-22.13 27.7c-15.92,21.32 -29.23,32.93 -26.95,55.72 0.58,5.65 14.23,30.78 21.95,38 7.92,7.42 23.54,15.17 37.8,19.66 2.05,64.32 -2.72,49.08 -10.77,77.48 -7.05,24.83 -4.68,40.05 -5.47,66.89 -2.83,6.26 -22.07,6.04 -30.66,25.38 -7.95,17.88 3.88,120.99 1.48,139.52 -10.52,81.27 -8.21,-56.88 -20.21,99.97l-11.69 45.75c43.66,13.09 40.31,55.58 30.15,82.23 -94.38,36.36 -74.15,-27.9 -74.88,-34.14 -119.36,-3.53 -40.77,36.63 -155.65,32.97 -80.11,-2.56 -71.74,33.08 -141.79,28.04 0.37,-23.88 4.41,-30.17 15.34,-45.65 -40.9,0.18 -40.69,4.1 -76.34,14.83l-146.07 65.03c-44.98,-1.26 -67.21,2.82 -106.41,5.21 -63.08,3.85 -51.45,-33.74 -71.32,-4.66 -25.68,-1.23 -78.63,19.26 -99.12,26.36 -21.28,-17.92 -14.34,-15.83 -31.75,-32.09 -10.8,3.19 -8.82,5.19 -19.24,4.79 -21.83,-0.83 -17.42,-2.38 -24.15,-4.72l-2.44 54.43 -29.92 -13.68 1.28 25.93 -46.76 -30.16c-11.41,14.83 -5.07,-4.32 -11.58,32.63 -0.74,90.61 22.58,79.39 64.28,124.77 7.12,7.74 32.07,47 35.27,49.17 28.6,19.41 -13.63,-32.48 34.55,22.54l8.05 -21.28c37.15,25.59 44.01,19.95 93.38,7.02 39.91,-10.47 71.14,-20.77 114.46,-32.9 392.24,-109.84 254.45,-86.61 328.9,-150.45 41.17,-35.32 192.91,-124.43 232.16,-141.42 -20.36,42.73 -61.89,52.69 -87.86,92.59 51.25,-3.88 51.75,-15.2 91.86,-26.06 224.6,-60.82 85.12,-8.47 182.97,-25.57 28,-4.89 57.49,-16.33 99.03,-25.95 18.66,-46.17 7.11,-45.76 36.16,-81.28 36.15,-44.2 17.95,-63.84 65.97,-182.71 9.07,-22.46 19.87,-73.41 36.72,-91.53 -7.55,-25.31 -28.15,-27.42 -23.48,-70.47 4.99,-46.08 26.95,-52.28 9.9,-95.01 -11.61,-29.11 -6.49,23.18 -14.15,-34.31 -1.47,-11.07 4.14,-62.45 5.21,-77.46 8.46,-118.55 3.16,-218.71 4.23,-335.15 23.47,22.9 38.46,75.18 22.46,95.28 11.98,-157.09 -35.06,-226.97 -59.76,-316.74 -28.21,-102.52 -23.99,-36.43 -45.11,-88.43 -12.45,-30.65 -8.06,-28.33 -34.55,-46.76 -3.86,102.46 26.9,131.29 25.5,216.49 -63.51,-1.1 -31.18,-6.29 -57.59,-17.07 -29.33,60.38 22.26,137.69 6.06,274.73 -13.24,-5.81 -51.44,-45.57 -45.07,17.71 6.03,60.05 70.38,73.48 28.04,220.75 -6.5,22.58 -4.93,-6.79 -4.77,21.86 0.22,42.04 -3.84,11.68 8.68,30.11 37.12,-23.87 -7.2,10.57 43.46,-60.61 29.69,-41.71 24.56,-250.34 25.79,-306.66 1.16,46.74 16.38,100.4 16.57,162.23 0.2,68.33 -2.7,110.32 3.76,174.73 9.51,94.86 -44.35,204.13 -58.31,309.43 -32.88,-78.48 -119.57,-156.98 -104.28,-274.02l-11.5 -8.04c-1.08,-0.93 -4.1,-3.02 -5.39,-4.23l-21.42 -35.08c-4.47,-23.27 4.37,-48.91 7.12,-73.64z"/>
   <path class="fil8" d="M2605.77 1193.01c-23.64,61.15 -25.55,37.83 8.99,88.01l34.67 -60.15c37.38,-74.88 69.17,-140.15 141.46,-186.5 -27.36,69.73 -70.05,100.1 -85.23,149.41 -15.14,2.92 -17.4,29.74 -22.61,48.15 -9.05,32.05 -12.72,48.96 -13.85,84.83 2.51,-1.58 5.49,-3.72 7.2,-5.21 47.71,-41.88 12.39,-32.47 46.57,-61.79 67.43,7.21 -50.94,-28.14 14.38,9.53 23.82,13.74 -12.17,7.87 9.95,4.85 2.16,-0.3 13.17,-12.33 17.37,-17.97l105.58 -153.72c-28.03,14.53 -34.44,49.92 -46.6,82.23l57.36 10.13c20.65,-2.26 29.74,-19.08 54.65,-38.55 42.25,12.06 2.57,-3.99 18.7,24.98 82.37,-39.33 69.82,25.66 148.66,17.86l2.13 67.81c39.49,12.95 22.26,-15.19 45.12,40.23 27.46,66.6 33.64,-29.95 37.84,69.42 -34.62,17.43 -47.02,7.29 -82.39,-10.39 -10.01,-5.01 -2.93,-2.7 -23.62,-11.72l30.99 40.68c171.66,191.35 108.98,391.71 511.1,551.52 245.6,97.59 592.56,21.61 580.87,-342.03 -1.24,-38.52 -6.86,-97.19 -33.69,-127.45l-1.07 42.02c-31.03,49.53 -8.74,108.95 -26.93,114.19 -62.18,17.95 -25.95,74.15 -104.77,104.68 -2.48,0.96 -5.17,1.75 -7.61,2.75 -2.36,0.97 -4.94,2.07 -7.16,3.08 -2.06,0.91 -4.51,2.35 -6.4,3.26 -48.63,23.41 -29.61,3.18 -62.38,20.63l-92.7 65.66c27.41,27.97 -2.62,10.88 34.57,19.39 0.75,0.17 29.15,-5 30.02,-5.18 -8.91,7.79 5.83,20.06 9.34,24.51 18.76,-4.98 26.95,-11.19 40.43,-12.67 24.42,-2.69 24.31,13.45 25.48,21.12 3.93,25.81 -3.02,-7.71 1.8,17.42l7.11 15.04c-1.89,1.46 -4.37,3.53 -5.64,4.46l-11.46 8.4c-75.92,50.64 -191.64,27.56 -239.13,2.64l59.32 -39.31c-103.09,-2.87 -123.41,-23.52 -202.84,-51.78l89.61 5.43c-27.3,-30.76 -65.44,-44.11 -103.38,-63.65 -52.29,-26.92 -121.27,-87.98 -147.44,-101.57 -14.88,-7.73 -2.43,-1.11 -20.19,-8.59 -46.52,-19.6 -60.61,-43.78 -103.4,-106.8 -96.37,-141.92 -1.24,-265.25 -74.61,-338.47 -56.42,-56.29 -36.29,-56.33 -35.2,-161.6l-50.83 -11.03c3.85,-25.31 15.78,-48.28 -5.48,-67.05l-60.07 -21.39c-42.18,-9.05 -36.14,2.74 -71.66,-14.14 -56.56,-26.87 -50.73,-24.97 -37.15,-53.08 -116.63,12.27 -268.48,171.1 -345.49,263.64 -15.81,19.01 -22.25,31.49 -40.29,43.83z"/>
   <path class="fil6" d="M630.48 5862.25l-0.59 15.37c19.34,47.26 154.35,47.95 192.21,45.17 134.05,-9.86 113.24,-41.04 187.12,-80.64 212.15,133.88 227.87,66.08 328.85,42.65 27.98,-56.29 76.55,-114.26 57.04,-199 -42.97,-4.49 -45.17,47.41 -60.67,82.51 -17.33,39.25 -40.98,68.59 -72.73,87.07 -46.4,10.79 -158.31,-81.59 -163.23,-123.31 -5.51,-46.6 -4.64,-7.12 4.25,-24.98 74.98,30.38 28.87,85.71 158.73,36.17 -19.09,-89 -99.81,-69.38 -102.64,-192.69 42.93,18.19 63.23,57.11 84.39,96.96l103.07 -14.09c10.37,-43.14 0.88,-91.52 2.71,-137.08 1.75,-43.24 12.46,-69.47 14.86,-110.31 -51.94,-4.95 -55.2,-22.38 -106.19,-19.64l-31.1 92.07c-37.7,-8.26 -50.44,-35.58 -83.33,-46.37 -31.94,-10.48 -102.33,-18.26 -112.57,14.5l-4.09 15.32c-10.77,65.46 20.68,137.67 41.62,191.51l-87.03 29.81c-137.43,-136.97 -143.95,-301.66 -172.46,-382.94 -41.41,-7.6 -83.8,-3.21 -122.42,10.63 -11.27,80 20.24,105.17 34.52,173.04l-66.9 12.32c-14.34,89.98 -1.85,283.58 25.9,361.59l114.91 -12.73c-1.01,-92.99 -27.85,-146.42 -16.79,-255.37 24.98,25.62 51.22,75.75 72.17,108.99 24.04,38.13 58.66,63.97 39.88,119.74 -39.31,116.72 -170.75,61.15 -184.38,59 -28.47,-4.5 -44.91,2.44 -75.11,4.73z"/>
   <path class="fil9" d="M829.98 1430.56c-2.63,48.26 -9.76,97.88 -3.51,145.78 9.42,72.07 -2.5,82.14 36.21,117.94 1.6,-64.24 -1.66,-133.77 23.98,-181.17l17.85 183.8 45.47 -28.79 18.46 149.1c39.27,-21.24 -9.92,19.11 17.27,-14.23 1.54,-1.88 3.46,-4.65 4.95,-6.63l26.38 13.89c20.72,26.64 35.02,11.12 47.45,109.93l40.77 -27.42c10.78,59.58 24.93,83.87 19.8,149.92 -1.77,0.86 -4.97,-0.49 -5.7,1.65l-11.19 3.19c-92.04,26.85 -63.61,2.73 -105.28,18.48l4.69 110.65c8.12,31.62 5.79,35.57 33.53,49.84l9.06 -66.32c10.27,-43.59 -7.22,-36.67 -23.73,-71.97 58.22,-11.63 58.34,15.41 121.99,-35.74 31.32,-25.15 -0.39,-10.04 33.35,-24.9 -25.49,-78.71 -77.54,-141.5 -115.82,-286.49 -29.56,-111.94 -44.53,-235.86 10.28,-335.76 85.69,-156.21 272.73,-310.92 504.69,-303.09 -10,14.76 -8.14,9.13 -17.53,19.73 -16.43,18.53 -5.53,-2.64 -22.88,28.48 42.89,-1.74 68.07,-10.61 65.99,-57.98 -23.89,-16.63 -36.81,-10.09 -73.56,-12.28 17.09,-46.51 25.13,-37.67 67.54,-51.67 -15.92,-4.04 -46.18,-0.57 -67.1,-0.85 -30.25,-0.4 -56.92,-1.26 -80.01,-17.43 20.1,-25.33 2.18,-13.32 40.96,-23.17l16.73 -3.46c11.75,-2.56 15.97,-3.79 29.28,-6.33l-0.45 -27.71c-126.42,27.09 -223.02,105.44 -309.21,122.23 -83.84,16.33 -144.36,77.08 -214.52,146.22 -72.27,71.21 -15.3,11.3 -60.65,41.42 -12.41,8.23 -47.85,65.45 -54.83,76.25 12.69,-74.67 149.63,-226.5 212.45,-288.46 110.56,-109.04 325.32,-203.88 497.86,-218.18 110.15,-9.12 292.91,-13.58 370.9,36.36l-124.77 -9.02c34.76,25.25 55.47,19.09 95.07,32.4 -65.7,-0.38 -301.71,-12.02 -338.73,17.99 14.86,2.37 325.96,10 369.21,0.61 3.16,-0.69 5.28,-1.41 8.24,-2.26l64.11 -30.17c33.5,-16.22 15.81,-6.87 56.97,-16.31 -57.24,-58.84 -354.25,-72.33 -429.46,-70.03 -175.17,5.37 -281.97,37.82 -410.49,94.41 -116.04,51.08 -210.28,137.26 -281.18,218.86 -66.27,76.27 -147.49,214.19 -160.89,328.69z"/>
   <path class="fil6" d="M2164.74 5609.89l40.04 212.3 -99.99 -18.42 59.95 -193.88zm-583.96 133.13c19.79,60.93 45.64,143.99 97.79,169.73 24.67,12.16 163.04,36.64 197.2,-72.22 26.57,10.41 57.89,9.24 96.66,6.95 1.66,2.46 2.85,5.87 3.73,8.05l14.98 51.08c73.9,19.17 74.98,-14.93 102.87,-52.6 37.99,8.22 106,21.68 140.26,44.56l24.18 24.68 113.65 -19.59c-19.33,-48.15 -43.31,-67.26 -52.96,-133.4 -6.47,-44.42 -14.07,-94.39 -22.44,-141.56 -43.53,-244.94 48.79,-359.96 -144.66,-300.82l2.12 131.95c-72.44,35.98 -50.12,-34.87 -104.65,148.85 -19.29,64.96 -33.62,129.1 -55.12,194.2l-103.91 17.25 3.64 -53.06c58.61,-2.87 41.89,8.26 68.99,-32.87 16.96,-25.73 28.9,-40.81 27,-73.35 -50.58,-13.99 -158.65,-18.67 -214.06,-10.13 -22.36,24.7 -45.48,48.89 -50.26,85.23l117.02 16.36c-8.12,29.41 -33.4,74.49 -66.76,95.09 -54.09,-31.51 -67.42,-111.36 -67.92,-177.35 -0.71,-95.53 23.77,-120.7 45.34,-188.14 21.53,10.55 36.08,20.1 44.25,47.56 7.1,23.86 2.53,54.05 2.36,82.3l93.08 7.95c25.31,-33.29 60.1,-117.15 51.06,-169.03 -30.69,-15.59 -42.16,-4.7 -77.41,-16.17 -39.07,-12.73 -72.47,-41.46 -156.55,-30.23 -101.46,13.54 -144.35,211.15 -129.48,338.73z"/>
   <path class="fil10" d="M1181.78 2027.56c5.74,3.04 153.09,229.28 258.82,291.27 -18.6,-95.65 -116.49,-182.06 -96.53,-486.49 4.08,-62.43 23.44,-114.39 25.28,-159.93 -18.13,17.21 -31.27,28.76 -60.03,33.58 -13.21,-117.7 8.92,-242.2 56.5,-338.64 32.52,-65.91 124.1,-203.59 174.7,-216.92 17.35,-31.12 6.45,-9.95 22.88,-28.48 9.39,-10.6 7.53,-4.97 17.53,-19.73 -231.96,-7.83 -419,146.88 -504.69,303.09 -54.81,99.9 -39.84,223.82 -10.28,335.76 38.28,144.99 90.33,207.78 115.82,286.49z"/>
   <path class="fil3" d="M3218.51 2955.5c44.19,-8.78 20.95,3.41 37.33,-36.41 12.51,-30.43 -7.1,-19.41 21.56,-33.98 10.61,-5.41 70.39,-10.42 107.65,-38.6 92.93,-70.32 83.47,-19.63 83.61,-89.09 -40.3,10.43 -111.18,57.67 -142.47,78.41 28.21,-38.12 28.43,1.57 28.64,1.75 -38.86,21.68 -34.56,30.14 -82.51,29.59 -20.05,-29.13 -37.75,-60.64 -34.4,-92.31 1.82,-17.09 2.7,-14.55 6.34,-21.26 15.74,24.94 24.06,33.76 13.15,59.22 68.46,-6.86 226.61,-139.47 281.21,-180.63 140.87,-106.2 205.56,-106.77 292.17,-335.1 18.49,-48.73 17.28,-79.83 31.83,-128.59 -29.27,21.15 -49.46,66.35 -70.7,98.07l-28.23 33.33c-12.49,113.64 -377.1,446.21 -472.67,492.52 -21.35,-28.46 -23.25,-69.29 -21.76,-104.19 -3.66,21.61 17.53,52.48 30.63,67.31l20.62 -65.33c39.71,-8.94 15.23,-21.59 52.8,8.86 2.89,-26.64 35.56,-66.21 41.96,-71.15l14.19 -5.8c1.27,-0.47 4.96,-1.49 6.05,-1.86 1.17,-0.38 4.6,-0.7 6.44,-1.96 -5.69,-29.3 -1.39,-22.59 -20,-43.1 -16.65,4.42 -19.3,-16.96 -23.04,29.03 -9.32,-20.3 -13.69,-27.13 -44.22,-37.83l-56.13 -2.92 -4.45 -54.8c-1.18,-0.96 -3.61,-4.47 -4.07,-3.07l-8.13 -6.41c-16.69,-13 -15.06,-26.52 -36.03,8.48l11.85 -96.17c-24.12,18.11 -20.2,17.78 -32.17,45.77 -3.87,-28.09 99.2,-224.71 220.11,-255.97l-19.09 110.35c37.99,-13.71 178.2,-139.73 219.49,-141.11l-17.45 -27.37c141.37,-102.67 36.46,-32.76 85.64,-89.93l-50.18 -25.73c-100.53,23.33 -148.31,88.49 -204.73,112.39 -1.96,-1.11 -4.11,-3.61 -4.99,-4.52 -0.84,-0.85 -3.62,-3.39 -4.59,-4.42 -36.69,-39.08 -24.41,-32.04 -133.98,-40.54 9.43,-8.44 4.36,-5.36 18.64,-13.33 14.16,-7.92 2.54,-2.43 19.79,-8.62 11.12,-3.99 28,-7.75 40.22,-11.08l9.55 -59.7c20.57,-1.1 33.67,-3.59 47.26,-11.34 60.12,-34.27 -34.81,-53.55 -69.96,-65.57 -49.23,-16.81 -45.68,-23.73 -77.49,-63.94 -13,-24.62 -87.31,-55.38 -114.94,-70.96 -44.42,-25.04 -73.46,-60.08 -116.14,-73.2 17.9,49.7 128.31,122.87 169.48,149.34 23.11,14.88 176.22,114.28 198.49,98.8 -139.35,8.5 -367.91,-172.73 -435.68,-204.98 13.86,34.52 118,113.72 158.29,137.93l144.05 78.08c31.17,13.53 30.71,9.59 42.35,34.27 -103.38,29.49 -303.29,-32.82 -390.35,-59.32 88.81,60.42 261.97,117.01 343.03,102.29 -8.33,25.77 4.47,15.67 -38.15,19.36l-114.23 -2.16c-45.22,1.25 -39.14,5.35 -47.86,12.92 45.92,19.73 96.21,15.07 139.9,29.37 1.97,0.64 6.15,5.64 7.56,3.44 1.42,-2.22 5.23,2.13 7.5,3.74 -24.94,20.69 -68.96,16.4 -102.04,23.38 71.94,35.55 199.41,-4.8 269.63,-9.31 -4.89,1.33 -62.32,49.44 -75.78,60.74 -68.36,57.35 -141.25,159.19 -176.37,251.13 -38.84,101.71 7.67,113.54 -65.12,252.21 -7.1,13.55 -5.29,10.64 -8.8,26.88 -2.76,12.77 -2.06,17.7 -5.46,31.74 -15.72,65.12 -24.63,50.86 22.34,119.41l67.74 -11.18c39.3,53.38 21.87,17.79 56.71,49.66l-21.44 45.07z"/>
   <path class="fil7" d="M3664.08 2027.52l50.18 25.73c-49.18,57.17 55.73,-12.74 -85.64,89.93l17.45 27.37c83.69,-19.26 -47.63,4.05 95.41,-40.46 27.49,-8.54 21.27,-19.69 30.44,-40.91 1.1,-2.54 1.65,-4.88 2.95,-7.49l83.63 -51.89c14.24,-7.93 -17.23,-15.29 48.82,-16.13 6,-0.08 23.35,2.64 29.34,4.61 26.61,8.81 10,0.98 27.64,15.26l-36.07 26.37c-52.23,18.88 -11.68,-15.08 -54.19,38.77 -25.29,32.05 -50.72,22.71 -56.16,61.7l-5.19 32.16c-7.99,20.51 -32.17,48.58 -50.51,60.83l1.51 46.53 28.23 -33.33c21.24,-31.72 41.43,-76.92 70.7,-98.07 -14.55,48.76 -13.34,79.86 -31.83,128.59 -86.61,228.33 -151.3,228.9 -292.17,335.1 -54.6,41.16 -212.75,173.77 -281.21,180.63 10.91,-25.46 2.59,-34.28 -13.15,-59.22 -3.64,6.71 -4.52,4.17 -6.34,21.26 -3.35,31.67 14.35,63.18 34.4,92.31 47.95,0.55 43.65,-7.91 82.51,-29.59 -0.21,-0.18 -0.43,-39.87 -28.64,-1.75 31.29,-20.74 102.17,-67.98 142.47,-78.41 28.13,-30.76 272.7,-185.8 344.48,-221.83 18.27,-9.17 20.95,-8.24 37.85,-16.63 90,-44.62 395.6,-361.96 260.53,-592.25 -59.39,12.03 -88.09,56.43 -203.18,69.94 -49.21,5.78 -82,5.05 -131.3,7.66 -51.7,2.74 -75.9,16.26 -112.96,23.21z"/>
   <path class="fil11" d="M3646.07 2170.55c-41.29,1.38 -181.5,127.4 -219.49,141.11l19.09 -110.35c-120.91,31.26 -223.98,227.88 -220.11,255.97 11.97,-27.99 8.05,-27.66 32.17,-45.77l-11.85 96.17c20.97,-35 19.34,-21.48 36.03,-8.48l8.13 6.41c0.46,-1.4 2.89,2.11 4.07,3.07l4.45 54.8 56.13 2.92c30.53,10.7 34.9,17.53 44.22,37.83 3.74,-45.99 6.39,-24.61 23.04,-29.03 18.61,20.51 14.31,13.8 20,43.1 -1.84,1.26 -5.27,1.58 -6.44,1.96 -1.09,0.37 -4.78,1.39 -6.05,1.86l-14.19 5.8c-6.4,4.94 -39.07,44.51 -41.96,71.15 -37.57,-30.45 -13.09,-17.8 -52.8,-8.86l-20.62 65.33c-13.1,-14.83 -34.29,-45.7 -30.63,-67.31 -1.49,34.9 0.41,75.73 21.76,104.19 95.57,-46.31 460.18,-378.88 472.67,-492.52l-1.51 -46.53c18.34,-12.25 42.52,-40.32 50.51,-60.83l5.19 -32.16c5.44,-38.99 30.87,-29.65 56.16,-61.7 42.51,-53.85 1.96,-19.89 54.19,-38.77l36.07 -26.37c-17.64,-14.28 -1.03,-6.45 -27.64,-15.26 -5.99,-1.97 -23.34,-4.69 -29.34,-4.61 -66.05,0.84 -34.58,8.2 -48.82,16.13l-83.63 51.89c-1.3,2.61 -1.85,4.95 -2.95,7.49 -9.17,21.22 -2.95,32.37 -30.44,40.91 -143.04,44.51 -11.72,21.2 -95.41,40.46z"/>
   <path class="fil6" d="M2506.99 5643.77c15.61,13.37 86.4,113.75 88.96,119.58l-100.82 35.36 11.86 -154.94zm269.64 346.58l63.21 -25.27c6.87,-14.8 8.76,-18.74 12.46,-38.88 -76.27,5.96 -94.47,39.74 -162.56,-6.84 -29.02,-19.85 -82.9,-78.35 -86.8,-108.18 58.98,-19.56 107.61,-10.33 154.01,-49.83 -5.99,-43.95 -81.64,-81.55 -145.39,-204.77 -48.18,-93.15 -63.31,-149.19 -93.01,-255.35 -99.45,6.5 -87.91,37.77 -71.49,189.33 -81.33,12.36 -63.54,25.52 -69.1,188.56 -10.9,319.97 20.92,232.61 119.81,210.43 72.89,92.84 115.76,143.47 278.86,100.8z"/>
   <path class="fil6" d="M2930.98 5611.15c17.46,66.79 30.43,143.53 46.26,210.07l-105.61 -16.49 59.35 -193.58zm-277.99 223.29c15.31,10.54 -21.83,13.59 38.79,16.54 9.49,0.46 36.43,-3.11 47.49,-4.02 16.32,21.03 15.27,40.99 22.9,65.72 26.84,0.98 46.04,-0.74 64.3,-11.11 37.51,-21.32 14.23,-13.48 34.38,-47.05 216.46,36.16 120.87,100.46 280.84,45.24 -26.72,-58.55 -40.47,-40.36 -53.27,-122.6 -7.91,-50.78 -14.56,-92.75 -22.31,-142.89 -18.6,-120.49 -19.72,-293.27 -24.33,-318.46l-115.77 8.19c-11.76,51.23 -2.15,93.61 -1.75,143.46l-65.21 8.81c-33.32,101.35 -63.78,216.17 -95.21,327.03 -21.74,3.64 -46.9,5.8 -65.2,9.2 -40.81,7.58 -29.18,-2.16 -45.65,21.94z"/>
   <path class="fil12" d="M318.12 1544.65c107.71,11.01 97.67,-27.27 155.47,62.23 20.82,32.24 83.36,104.56 134.98,43.57 1.2,2 1.42,3.36 1.68,6.77 4.81,60.53 27.37,46.05 44.18,46.35l3.11 -84.45 98.89 10.42c2.4,66.77 1.29,28.74 -15.85,60.62 -24.5,45.57 -5.24,23.86 2.7,56.01 13.53,54.71 -31.3,22.11 2.48,114.17 26.81,38.26 11.43,29.48 62.69,36.65 13.12,-23.05 -35.31,-18.73 32.38,-18.73 4.44,21.8 8.43,27.13 9.4,52.28 13.48,-24.56 -6.41,-57 -21.61,-97.48 -20.17,-53.72 -48.55,-206.91 -38.67,-253.02 7.77,-36.3 -9.81,-36.94 -36.28,-55.31 -47.27,-31.47 -53.74,-26.03 -104.3,-42.2l-75.72 -21.73c-29.5,-8.41 -57.48,15.48 -83.12,-37.62 -25.84,-53.55 -3.12,-43.76 -71.89,-67.08l34.67 -6.14c-14.39,-22.32 -4.21,-4.66 -20.8,-22.53 -16,-17.25 -10.86,-8.93 -23.14,-28.3 -93.98,12.73 -135.29,-5.1 -168.44,83.75 -39.4,105.62 24.42,117.76 77.19,161.77z"/>
   <path class="fil8" d="M2253.04 2718.24c122.33,-14.01 161.22,-82.6 248.69,-14.76 41.04,31.82 42.98,2.82 83.82,103.65 12.89,31.82 1.9,40.92 36.08,72.21l37.32 24.79c27.76,-0.57 15.52,-6.54 49.57,-34.32 18.97,-15.48 32.27,-20.85 58.81,-27.17 1,1.81 2.22,2.87 2.48,5.65l13.34 76.2c0.16,1.01 0.58,3.62 0.7,4.57 7.17,58.2 -14.04,-0.39 4.86,24.46 7.46,9.79 7.96,-13.5 6.72,6.07 -30.74,89.17 -101.66,82.67 -126.27,93.23 -10.8,15.32 -33.1,49.88 -42.18,66.58 -3.59,6.61 -9.61,24.93 -11.39,30.95 -7.43,25.18 -18.29,-1.1 -0.6,43.63 29.22,-11.12 34.3,-10.81 64.31,-19.98 30.66,-9.37 38.41,-18.73 69.27,-27.35 -21.19,-11.36 -20.63,-6.06 -0.84,4.55 22.23,11.93 -30.8,7.3 47.61,15.25 11.74,-14.31 39.38,-32.04 57.06,-53.09 18.69,-22.27 23.14,-69.77 19.41,-102.46 -8.32,-72.74 -21.98,-114.89 -45.76,-182.57 -8.21,-23.33 -27.46,-48.93 -36.18,-77.52 -8.65,-28.36 -0.06,-14.97 -13.68,-39.43 -37.81,-67.96 -62.09,-134.86 -121.08,-190.82l-75.44 49.42c-40.68,27.97 -212.14,94.4 -265.64,114.53l-33.52 13.76c-2.37,1.33 -4.54,2.64 -6.83,4.09 -2.41,1.52 -4.69,3.31 -6.87,4.81l-13.77 11.07z"/>
   <path class="fil13" d="M3500.49 1058.61c-39.68,34.27 43.23,103.53 86.56,146.63l327.96 337.68c35.15,36.73 57.56,32.77 87.13,-2.7 162.32,-194.69 -418.48,-553.45 -501.65,-481.61z"/>
   <path class="fil14" d="M3272.44 3065.85c8.54,-18.74 0.87,-4.89 20.46,-11.79 32.49,59.21 256.38,197.46 333.87,286.45 41.74,11.28 71.93,47.55 103.09,73.47 33.85,28.16 68.81,53.66 103.34,81.62 32.01,25.91 182.36,133.16 194.93,165.57 45.4,9.47 65.72,51.44 121.2,80.11 -26.02,-48.45 -142.79,-137.16 -158.76,-193.88 -37.42,-5.39 -132.29,-124.06 -162.87,-156.21 -2.86,-3 -26.99,-28.35 -27.23,-28.75 -8.61,-14.06 -2.43,-2.36 -4.63,-14.63l2.16 -9.78c-71.74,-38.11 -240.94,-232.97 -306.93,-303.42 -21.58,-23.04 -88.94,-74.9 -87.36,-116.32 -30.06,-1.88 -76.56,-6.43 -101.9,30.29 -8.06,11.68 -20.86,89.86 -29.37,117.27z"/>
   <path class="fil6" d="M4028.13 3661.17c-12.57,-32.41 -162.92,-139.66 -194.93,-165.57 -34.53,-27.96 -69.49,-53.46 -103.34,-81.62 -31.16,-25.92 -61.35,-62.19 -103.09,-73.47l29.05 44.2c-30.74,-12.78 -18.72,-10.79 -56.42,-8.74l20.02 110.32 -18.68 11.37c-17.71,12.03 -4.26,-4.44 -20.99,16.04 13.11,25.53 8.92,11.05 19.1,29.09 46.05,81.58 51.41,52.93 33.51,93.8 38.26,-1.04 50.8,2.53 69.06,24.37 12.57,15.04 29.49,38.39 41.98,58.86 14.09,23.06 18.2,53.61 32.76,68.72 60.1,62.38 115.8,0.48 126.13,-6.16 25.14,-16.19 30,-19.53 48.45,-35.55 39.62,-34.4 44.82,-57.03 77.39,-85.66z"/>
   <path class="fil12" d="M4004.53 3016.03c4.16,8.2 -3.65,-0.59 9.73,11.71 20.1,18.45 80.23,48.6 107.29,75.67 17.8,-10.3 15.88,16.33 13.27,-19.47 -25.74,-117.55 -80.3,-76.29 -89.66,-112.26 53.66,-14.16 131.99,13.12 122.77,-68.23 -4.93,-43.45 -25.04,-34.88 -32.13,-60.44 -7.74,-27.93 12.27,-38.14 27.5,-66.7 -10.25,-33.96 20.13,-8.32 -34.14,-27.59l-115.5 -24.17c-51.91,-10.38 -103.91,-26.13 -157.95,-33.73 -1.72,2.24 -5.34,3.54 -7.42,4.28l-15.81 5.84c-3.1,0.58 -5.43,0.52 -8.75,0.88 -11.17,1.18 -5.01,-2.73 -27.58,-1.08 -61.72,4.52 16.85,5.11 -111.09,30.08l-19.97 6.31c-28.08,29.77 41.61,50.97 75.04,72.49l68.29 51.61c1.78,1.23 4.2,2.52 5.96,3.75 56.62,39.33 8.82,15.4 66.59,41.84l24.77 13.9c83.61,52.06 108.15,53.41 98.79,95.31z"/>
   <path class="fil14" d="M2421.56 982.88c18.06,29.97 41.79,58.46 58.45,97.13 21.22,49.25 30.38,68.51 72.23,85.96l45.41 -57.49 -85.19 -1102.81 -62.34 739.5c-2.33,41.61 -4.22,85.54 -7.46,121.07 -7.29,79.96 11.3,108.19 -21.1,116.64z"/>
   <path class="fil15" d="M3462.93 2866.4l3.94 5.48c44.91,8.47 425.44,188.4 447.28,213.15 44.67,4.19 41.39,10.9 72.27,32.28 134.09,92.78 48.61,44.29 141.62,64.2 6.56,1.4 270.92,120.15 287.32,137.59 16.69,17.74 -7.71,4.28 23.64,31.4 32.31,27.94 9.56,12.2 48.98,25.79 -9.81,-64.78 8.44,-65.46 -50.89,-68.21l12.36 -11.71c26.15,-31.87 17.33,-14.88 20.05,-38.5 -26.73,-11.31 -33.6,-13.58 -51.73,11.58l-10.14 18.12c-0.76,1.33 -1.92,4.4 -3.46,6.23l-212.4 -148.46c-57.82,-37.36 -25.64,-10.56 -56.95,-61.4 2.61,35.8 4.53,9.17 -13.27,19.47 -27.06,-27.07 -87.19,-57.22 -107.29,-75.67 -13.38,-12.3 -5.57,-3.51 -9.73,-11.71 -51.39,-16.15 -152,-94.71 -198.52,-124.65 -50.17,-32.3 -144.05,-102.41 -187.68,-117.9 -29.04,11.04 -132.84,75.01 -155.4,92.92z"/>
   <path class="fil5" d="M409.91 5861.2c-1.39,-52.37 -41.42,-127.87 -10.83,-173.81 20.36,-30.61 88.99,-67.37 91.71,-103.75l-152.04 -18.89c-27.1,-38.48 -51.72,-113.55 -87.02,-138.44 -18.33,28.96 -55.28,120.07 -67.8,131.44 -32.47,29.49 -115.78,17.65 -156.95,39.13 15.96,28.12 28.13,34.95 53.88,57.52 25.16,22.06 33.25,25.95 54.96,52.55l-18.45 156.51c45.29,-13.19 117.88,-66.92 151.63,-64.06 25.49,2.16 102.49,50.34 140.91,61.8z"/>
   <path class="fil5" d="M4601.93 5683.03c61.5,12.18 19.18,121.4 15.84,181.34 48.33,-13.02 108.8,-68.12 149.68,-65.88 18.3,1 116.97,53.45 143.91,62.51l-23.66 -166.43 51.19 -37.43c19.46,-35.33 36.03,-32.7 54.98,-71.8 -242.27,-38.82 -135.82,-12.37 -234.64,-158.57 -36.3,32.05 -43.23,99.21 -71.36,127.91 -35.02,35.74 -117.49,19.89 -161.54,42.2 30.65,48.98 52.58,33.31 75.6,86.15z"/>
   <path class="fil16" d="M1906.45 3628.18c94.05,-15.12 182.71,-43.4 270.53,-68.9 42.28,-12.28 78.94,-27.12 126.07,-42.7 32.44,-10.72 92.74,-36.01 120.75,-38.57l36.14 -21.76c9.85,-4.43 17.34,-6.11 26.01,-10.17l359.68 -169.93c4.9,-38.29 1.71,-58.92 -10.52,-95.72 -23.01,-1.24 -163.01,60.01 -172.08,88.6 -19.71,62.08 18.99,-20.23 -4.39,17.61 78.26,-31.46 42.47,5.78 51.86,15.62 -76.74,29.23 -33.07,9.9 -60.01,49.32 -24.71,36.16 -230.61,109.78 -283.55,113.76l17.06 -21.98c38.79,-49.03 37.72,-55.79 112.84,-84.98 -7.11,-0.18 -28.61,7.73 -38.75,10.55l-52.55 1.45c-1.4,-3 -5.37,-1.58 -7.82,-2.87 11.92,-13.27 2.63,-6.72 23.78,-20.1 2.78,-1.76 16.94,-6.74 18.57,-7.26l-345.99 109.42c-73.57,18.57 -89.68,16.83 -121.59,54.95 76.94,10.56 -20.81,-12.74 23.96,11.38 0.06,0.03 8.7,9.44 26.16,14.72 -7.03,0.14 10.52,-13.27 -11.64,3.47 -25.49,19.25 2.84,-5.39 -15.86,19.41 26.81,-1.07 45.77,-4.36 64.18,5.88 -46.96,39.36 -157.86,57.67 -228.13,57.11l29.53 -29.18 -56.06 -3.01c11.4,-16.71 4.51,-13.81 20.93,-19.53 -51.16,-11.68 -31.44,-20.31 -68.76,-22.31 -24.06,-1.28 -50.3,9.39 -66.12,16.92 29.02,145.15 128.21,78.82 215.77,68.8z"/>
   <path class="fil8" d="M1094.87 2351.37l194.19 313.77c8.34,8.61 6.87,6.14 17.52,14.28 6.51,-36.95 0.17,-17.8 11.58,-32.63l46.76 30.16 -1.28 -25.93 29.92 13.68 2.44 -54.43c6.73,2.34 2.32,3.89 24.15,4.72 10.42,0.4 8.44,-1.6 19.24,-4.79 17.41,16.26 10.47,14.17 31.75,32.09 20.49,-7.1 73.44,-27.59 99.12,-26.36 29.8,-19.6 10.56,-4.48 18.15,-34.14 -22.61,-18.93 -16.33,-36.39 -38.37,-52.79 -60.09,-44.7 2.94,30.38 -49.43,-16.16 -13.94,-12.39 -18.03,-33.91 -34.93,-45.12 -46.18,-30.65 18.31,15.55 -26.25,-9.25 -33.34,-18.56 -4.01,-21.06 -36.87,-34.88 -28.99,-12.21 33,6.26 -21.28,-3.15 -30.5,-5.29 -76.16,-32.74 -112.52,-52.5 -14.74,-8.02 -21.27,2.66 -34.65,-50.79 -42.67,8.27 -35.82,11.9 -75.27,-1.51 -15.27,-60.57 -26.94,-88.21 -60.78,-105.41 1.14,31.7 2.49,52.49 10.63,80.23 7.49,25.54 13.37,29.19 18.04,53.74 -9.73,8.7 16.91,8.96 -31.86,7.17z"/>
   <path class="fil17" d="M1539.9 949.55c-4.73,-28.14 -3.97,-23.18 15.57,-34.03 15.31,-8.51 40.66,-8.85 58,-8.76 37.02,-30.01 273.03,-18.37 338.73,-17.99 -39.6,-13.31 -60.31,-7.15 -95.07,-32.4l124.77 9.02c-77.99,-49.94 -260.75,-45.48 -370.9,-36.36 -172.54,14.3 -387.3,109.14 -497.86,218.18 -62.82,61.96 -199.76,213.79 -212.45,288.46 6.98,-10.8 42.42,-68.02 54.83,-76.25 45.35,-30.12 -11.62,29.79 60.65,-41.42 70.16,-69.14 130.68,-129.89 214.52,-146.22 86.19,-16.79 182.79,-95.14 309.21,-122.23z"/>
   <path class="fil15" d="M3152.17 3332.73c23.61,7.01 16.4,6.68 33.73,27.81 11.86,14.47 16.11,20.81 25.35,38.71 20.91,40.4 -2.62,10.6 27.59,37.18 73.88,65.02 44.18,74.25 78.01,125.04 39.28,58.98 42.11,25.22 76.51,62.09l239.78 311.98 51.23 -7.65c-31.33,-13.7 -23.31,-18.55 -58.49,-83.88 -17.2,-31.94 -37.59,-65.1 -54.06,-92.77 -30.4,-51.07 -117.61,-185.21 -129.4,-238.56 -19.22,-86.95 -24.49,-46.92 -58.84,-90.5 -19.22,-24.4 -126.62,-212.38 -129.7,-237.86l-26.06 -9.06c-15.66,46.29 -50.29,112.63 -75.65,157.47z"/>
   <path class="fil18" d="M1007.58 2176.65l-4.69 -110.65c41.67,-15.75 13.24,8.37 105.28,-18.48l11.19 -3.19c0.73,-2.14 3.93,-0.79 5.7,-1.65 5.13,-66.05 -9.02,-90.34 -19.8,-149.92l-40.77 27.42c-12.43,-98.81 -26.73,-83.29 -47.45,-109.93l-26.38 -13.89c-1.49,1.98 -3.41,4.75 -4.95,6.63 -27.19,33.34 22,-7.01 -17.27,14.23l-18.46 -149.1 -45.47 28.79 -17.85 -183.8c-25.64,47.4 -22.38,116.93 -23.98,181.17 -38.71,-35.8 -26.79,-45.87 -36.21,-117.94 -6.25,-47.9 0.88,-97.52 3.51,-145.78 -21.35,29.29 -18.8,62.26 -20.56,99.82 -1.98,42.53 -1.13,75.84 3.45,118.06 17.03,157.38 90.73,340.76 162.41,489.15 1.96,4.05 7.35,14.62 10.21,18.4 12.2,16.15 6.27,9.11 22.09,20.66z"/>
   <path class="fil19" d="M2888.11 2901.59c37.73,27.52 96.44,42.66 135.76,56.7 36.29,12.96 30.53,12.21 61.42,35.19 37.58,27.92 28.32,12.33 65.52,28.4 -96.04,18.1 -200.62,-54.64 -247.39,-77.01 17.54,100.8 -0.31,130.36 13.54,157.63 26.02,-5.57 38.97,-7.84 47.18,-30.5 19.93,-55.03 13.35,-14.55 -12.05,-45.87 63.63,8.75 127.26,23.01 158.77,81.99l-75.8 -12.21c1.74,2.65 4.34,5.47 5.75,7.62 36.8,56.1 8.78,54.82 -24.83,81.61 -55.8,23.12 -103.95,-21.58 -144.52,-36.13 3.85,37.35 -0.68,28.45 40.04,34.95 -2.14,1.62 -5.99,0.65 -6.92,4.17 -5.28,20.15 -5.3,0.96 -11.61,9.19 -9.81,12.8 -9.6,-2.49 -8.79,24.01 13.45,12.08 89.81,50.24 112.87,60.94 -68.68,-10.04 -1.29,2.17 -70.95,22.52l-14 4.8c-1.71,0.59 -5.3,1.49 -7.43,3.1 20.31,15.85 22.41,24.79 42.83,21.3l-103.02 -6.06 68.6 38.75c-21.81,14.54 -48.54,1.66 -80.29,-9.94 -3.68,6.57 18.97,23.34 -25.7,45.26 50.92,18.1 79,82.79 135.7,45.85 22.93,-14.93 218.9,-340.05 234.57,-391.3l-8.72 44.45 34.58 -14.91 11.07 -50.55 -5.2 -37.26c-104.17,-25.07 -280.97,-111.24 -331.34,-117.78l10.36 21.09z"/>
   <path class="fil20" d="M1418.19 3124.01c-1.28,16.95 70.71,243.44 101.69,270 0.44,-45.49 -5.99,-35.08 -16.59,-72.48 -6.19,-21.82 -11.46,-56.54 -13.44,-78.55l52.67 12.86c-2.08,13.87 -10.29,-4.97 -2.92,29.7 0.45,2.12 1.17,6.13 2.66,8.83 33.43,0 62.48,3.45 93.47,-9.14l-10.78 -32.92c-1.47,-1.3 -8.03,-3.04 -11.1,-3.57 33.75,-30.07 11.35,-28.61 1.31,-59.04 -10.88,-32.99 -1.57,-56.69 -23.25,-91.52 -14.72,-23.67 -6.86,9.99 -20.52,-36.67 -5,-17.11 -4.16,-24.32 -2.43,-38.38 0.21,-1.66 0.77,-4.32 1.05,-5.99l3.89 -37.8c-0.7,-2.66 -4.43,-10.34 -5.68,-12.99 -34.64,-73.21 8.88,51.18 -12.93,-21.7 54.52,-7.84 128.73,-20.09 175.38,-43.16 82.49,-40.79 113.78,-29.07 168.01,-26l9.04 -43.25 -414.44 111.15c-97.71,24 13.82,-35.27 -69.1,-5.03 -66.84,24.38 -21.96,149.58 -5.99,185.65z"/>
   <path class="fil21" d="M2363.88 1876c1.93,-0.95 2.9,-6.66 3.17,-5.5 0.29,1.17 2.42,-4.47 2.74,-5.9 11.9,-52.81 -7.23,-30.57 4.81,-77.71 23.46,-10.39 43.99,16.54 46.81,22.41 20.66,42.78 -5.72,53.71 9.26,82.5 24.31,-33.28 -8.24,-106.72 -23.62,-137.7 -25.18,-50.8 -11.47,-21.15 -1.6,-68.78 10.41,-50.22 -6.2,-40.78 2.6,-85.86 3.52,-17.98 23.8,-53.29 27.2,-68.87 13.16,-60.18 -11.71,-39.08 -10.66,-81.53 0.89,-35.59 58.71,-93.89 -4.56,-117.65 -37.85,-14.21 -24.89,74.53 -24.03,90.34 2.04,37.15 -8.64,53.75 -12.04,89.49 -0.01,-0.01 -11.08,-7.22 -12.21,-7.54l-9.01 -0.69c-30.89,-9.49 -35.55,-43.28 -63.17,-81.87 -26.03,-36.39 -24.76,-24.96 -45.27,-47.17 -12.35,-13.38 -4.51,-8.13 -15.19,-21.49 60.32,13.82 37.1,15.91 79.71,34.9 -9.38,-42.35 -40.66,-92.76 -80.69,-111.66l13.15 35.53c-15.46,9.19 -5.45,4.37 -23.13,8.39 -28.87,6.58 8.36,-7.45 -18.1,1.24l6.73 46.5 -100.64 -24.56c17.22,44.17 42.2,69.67 94.73,73.04 9.35,103.16 6.28,47.9 47.82,115.16l-45.22 16.72c-1.4,0.4 -4.46,0.6 -6.45,1.56 21.91,74.44 -8.93,33.59 49.97,77.14 76.03,56.18 21.42,18.14 82.94,46.49l15.98 8.56c2.35,1.24 5.66,3.01 8.24,4.86 -19.05,39.16 6.8,-0.73 -13.31,19.77 -8.64,8.84 -10.79,8.75 -22.98,16.77 20.17,46.53 34.1,84.31 36.02,153.11z"/>
   <path class="fil22" d="M732.26 3202.16l-17.07 15.61c-11.88,9.1 -10.85,7.43 -21.76,14.85 -13.8,9.38 -26.35,18.73 -43.83,29.74 -31.11,19.58 -74.38,39.04 -88.31,67.85 70.65,-23.14 291.3,-130.27 366.99,-168.82 59.04,-30.06 121.22,-56.56 183.51,-86.29 62.22,-29.7 123.42,-62.46 187.32,-90.18l17.03 24.16c-7.11,-73.5 25.31,-142.35 -15.89,-183.24 -13.09,17.26 -0.94,4.7 -20.62,20.6l-50.37 32.36c-25.06,17 -46.24,32.07 -71.98,48.47l-279.37 183.87c-46.27,30.03 -95.37,70.79 -145.65,91.02z"/>
   <path class="fil22" d="M3855.71 2690.82c54.04,7.6 106.04,23.35 157.95,33.73l115.5 24.17c54.27,19.27 23.89,-6.37 34.14,27.59 24.79,-21.56 -5.38,-11.07 31.18,-10.16 0.97,0.03 33.51,7.04 38.15,8.02 45.2,9.59 47.58,1.12 78.05,28.51 15.07,-10.05 -16.9,-9.75 31.63,-6.3 11.14,0.79 36.5,7.89 45.75,9.93 37.06,8.13 56.4,12.34 90.45,23.64l168.66 28.72c-78.7,-66.38 -225.63,-59.08 -290.1,-140.7 -52.65,-5.15 -63.78,3.55 -114.52,-17.02 -16.78,-6.79 -71.17,-27.84 -87.86,-38.61 -64.31,-13.25 -153.77,-52.03 -214.34,-76.07 -57.55,-22.83 -61.38,-2.17 -96.08,24.51 -25.91,19.91 -56.19,37.4 -75.22,59.65l86.66 20.39z"/>
   <path class="fil22" d="M1221.66 2678.21l-80.69 -124.9c-14.73,28.48 -0.92,9.19 -94.54,45.46l-706.56 262.77c92.21,-2.42 833,-182.58 881.79,-183.33z"/>
   <path class="fil22" d="M2752.62 943.7c20.11,-11.46 147.94,-88.29 161.56,-100.17 -16.16,-34.99 111.82,-629.83 112.55,-745.44 -52.68,116.25 -97.23,274.12 -140.62,416.4 -41.59,136.35 -100.84,278.52 -133.49,429.21z"/>
   <path class="fil10" d="M1704.64 2988.61c-70.44,133.73 97.33,479.3 219.71,377.65 57.05,-47.39 -44.29,-173.17 -67.47,-214.69 -36.45,-65.29 -64.96,-190.62 -152.24,-162.96z"/>
   <path class="fil9" d="M2696.72 2499.52c19.06,24.89 32.29,42.19 49.08,75.33 60.76,14.19 85.13,-12.7 92.3,69.2l7.13 -50.02c39.41,89.14 -56.04,205.97 43.67,233.1 51.67,-43.19 93.13,-188.24 64.18,-292.34 -31.39,-112.85 -198.02,-98.83 -256.36,-35.27z"/>
   <path class="fil22" d="M2951.79 3576.23c5.55,41.75 72.93,171.3 69.2,180.05 12.28,26.02 27.81,41.57 27.76,83.74 24.41,-11.99 19.05,9.17 33.46,40.59 9.36,20.43 22.25,48.31 32.01,71.43 18,42.67 46.25,101.98 65.76,140.59l57.25 -27.4c-37.28,3.1 -22.77,-19.23 -48.93,-103.25l-102.9 -358.63 -37.52 -95.68c-35.9,34.53 -52.61,43.68 -96.09,68.56z"/>
   <path class="fil22" d="M2084.94 773.24l141.39 54.47c-6.95,-70.21 -61.38,-210.32 -82.85,-276.61 -24.58,-75.9 -78.54,-214.16 -85.83,-287.14l-61.92 -128.67c-10.68,75.31 115.58,599.75 89.21,637.95z"/>
   <path class="fil22" d="M1033.73 2375.26c-15.93,-40.25 -32.95,-86.5 -63.38,-119.66 -2.84,27.84 -108.62,7.88 -159.71,22.97 -106,31.32 -470.73,45.75 -549.43,82.2l772.52 14.49z"/>
   <path class="fil22" d="M2263.47 3595.4c28.34,8.86 14.24,-14.91 15.18,32.79 0.1,5 -3.66,39.76 -4.14,49.65 -1.93,40.12 -3.6,260.26 -21.61,284.21 49.09,38.82 57.81,21.01 49.08,45.66 -3.96,11.24 -8.69,-9.11 -2.76,11.23 3.28,11.25 16.93,18.58 26.55,26.1 4.02,-61.79 34.39,-170 46.37,-230.72l38.42 -200.63c11.57,-22.52 -10.01,-12.28 18.9,-19.04 -28.12,-15.67 -51.52,-34.14 -77.42,-30.14 -17.33,2.66 -74.59,23.72 -88.57,30.89z"/>
   <path class="fil23" d="M3914.15 3085.03c-21.84,-24.75 -402.37,-204.68 -447.28,-213.15 -22.32,38.47 -43.09,13.62 -56.92,47.93 21.11,45.66 0.41,17.69 67.05,28.57 87.15,14.2 1.51,49.2 131.1,34.79 20.85,92.74 -19.83,62.29 -23.04,123.93 41.29,1.59 41.23,-28.67 61.33,-56.62 30.22,1.64 22.52,7.42 47.33,5.84 39.51,-2.52 17.03,-6.97 40.67,-11.65 13.23,-2.62 67.05,1.34 84.14,12.2 -20.55,33.05 -59.05,-12.22 -107.12,18.27l-1.96 46.2c66.91,-2.15 6.16,-21.09 77.21,-11.09l25.39 64.61c27.25,-10.12 9.43,-1.54 30.61,-17.36 14.25,-10.64 13.25,-8.36 23.25,-24.74 37.12,-60.72 -6.58,-8.23 48.24,-47.73z"/>
   <path class="fil6" d="M3048.75 3840.02c0.05,-42.17 -15.48,-57.72 -27.76,-83.74l-54.65 -26.21c4.84,-114.64 -86.19,-121.49 -146.78,-46.77 -11.6,14.31 -5.22,7.72 -12.7,14.58 -10.32,9.46 -8.59,2.94 -25.39,16.83 10.69,11.59 1.61,0.1 12.93,9.54l60.13 69.32c9.61,20.78 -1.06,36.39 29.49,72.04 49.99,58.37 143.59,74.83 164.73,-25.59z"/>
   <path class="fil24" d="M1516.75 3410.52l37.74 80c48.35,17.77 36.87,38.83 109.18,34.19 30.82,-1.99 77.96,-15.89 108.76,-22.98 56.56,-13.03 159.93,-53.49 207.01,-58.21 -105.8,17.01 -203.67,47.95 -315.63,42.81l-0.03 9.05c35.16,-3.8 171.97,-30.33 205.74,-54.74 -47.41,1.96 -29.76,4.84 -66.48,-7.9 -36.86,-12.77 -83.39,-22.84 -110.63,-54.81l-33.87 -33.48c-22.05,-17.45 1.75,-74.42 -80.2,-47.31 -64.76,21.41 -30.7,46.08 -26.83,52.37 24.04,39.14 24.68,52.44 23.27,103.88 -29.45,-13.16 -35.26,-29.17 -58.03,-42.87z"/>
   <path class="fil15" d="M1045.22 3525.22l18.53 78.27c9.21,-39.23 -0.91,-15.84 34.21,-39.44 71.42,-48.02 259.27,-227.14 325.3,-247.47l-50.87 -120.07 -280.36 298.17c-30.24,29.06 -20.76,36.84 -46.81,30.54z"/>
   <path class="fil22" d="M4093.67 2370.43c229.03,-1.87 466.48,2.94 689.58,-12.64 -49.84,2.09 -227.82,-32.8 -304.53,-40.04 -116.45,-11 -213.77,-36.45 -326.8,-37.52l-58.25 90.2z"/>
   <path class="fil15" d="M2649.16 3844.1l25.26 102.42 77.85 -14.71c-3.39,-42.61 -7.48,-111.84 -4.6,-153.49 5.5,-79.36 25.81,-51.92 -4.65,-137.41l-129.83 -10.01 35.97 213.2z"/>
   <path class="fil25" d="M3203.01 778.06l105.53 2.17c49.16,-136.64 185.83,-413.48 213.34,-510.2 -38.42,17.82 -141.96,213.68 -164.06,247.76 -57.7,88.98 -103.05,169.38 -154.81,260.27z"/>
   <path class="fil25" d="M1645.25 3623.21c-15,-28.28 -3.97,-28.75 -39.74,-42.29 -23.1,-5.58 -38.78,-15.49 -57.29,-24.44 -3.58,40.75 -45.88,94.42 -68.47,133.02l-213.28 385.71 343.03 -431.66c26.57,-29 6.02,-15.14 35.75,-20.34z"/>
   <path class="fil25" d="M4177.18 1903.58l28.96 99.57 5.05 -29.97c44.98,1.63 95.75,-16.87 141.63,-26.26 165.3,-33.82 109.3,-26.63 267.84,-67.14 44.73,-11.43 100.57,-19.35 123.9,-36.64 -98.79,5.04 -494.38,37.02 -567.38,60.44z"/>
   <path class="fil26" d="M595.29 1937.54l2.5 -3.72 164.12 40.24c55.09,19.81 15.1,-13.64 41.57,31.99 1.95,-1.36 4.69,-6.15 5.59,-4.42l22.71 -14.25c1.98,-1 8.55,-3.8 11.58,-4.45l-34.91 -85.94c-51.26,-7.17 -35.88,1.61 -62.69,-36.65 0,0.04 9.74,7.41 -7.75,26.96 -58.69,-5.42 -43.31,1.69 -95.44,-15.9 -18.37,-6.2 -1.76,-5.39 -21.79,-4.61 -48.25,1.9 -129.23,3.6 -178.17,-11.44l-178.15 -10.5c52.08,15.53 107.68,28.13 165.01,43.16 50.03,13.12 131.16,20.58 165.82,49.53z"/>
   <path class="fil8" d="M3015.98 3185.14c33.61,-26.79 61.63,-25.51 24.83,-81.61 -1.41,-2.15 -4.01,-4.97 -5.75,-7.62l75.8 12.21c-31.51,-58.98 -95.14,-73.24 -158.77,-81.99 25.4,31.32 31.98,-9.16 12.05,45.87 -8.21,22.66 -21.16,24.93 -47.18,30.5 -13.85,-27.27 4,-56.83 -13.54,-157.63 46.77,22.37 151.35,95.11 247.39,77.01 -37.2,-16.07 -27.94,-0.48 -65.52,-28.4 -30.89,-22.98 -25.13,-22.23 -61.42,-35.19 -39.32,-14.04 -98.03,-29.18 -135.76,-56.7 26.2,79.36 17.35,158.2 -7.16,245.09 59.46,11.64 65.83,22.31 100.65,33.11 27.86,8.65 11.24,6.22 34.38,5.35z"/>
   <path class="fil22" d="M1906.21 3692.84c-15.92,88.27 -61.59,173.16 -71.61,270.03l145.54 -17.34 -73.67 2.82c7.75,-24.84 75.27,-184.99 91.05,-195.78 19,28.88 9.29,22.95 19.46,57.28l49.51 -1.65 -49.8 1.15 -11.07 -69.47 31.32 0.68 -26.63 -16.38 12.49 -56.94 -116.59 25.6z"/>
   <path class="fil3" d="M2398.59 2198.01l-12.48 3.51c-0.86,-0.14 -4.53,0.02 -5.5,-0.24 -13.5,-3.84 -5.52,-2.36 -12.74,-9.4 5.4,223.43 -34.86,163.27 -38.77,270.85 55.82,-7.42 38.17,-9.74 63.1,-27.32l38.47 -34.8c13.26,9.09 24.21,-3.96 21.32,40.04 20.19,-101.55 34.8,-204.16 -51.67,-296.17 -15.15,-16.11 -15.82,-10.23 -18.95,-22.94 9.69,23.88 20.69,45.77 17.22,76.47z"/>
   <path class="fil25" d="M1678.03 724.4l103.59 -0.66c-27.92,-42.1 -63.84,-107.86 -90.15,-151.65 -19.47,-32.41 -81.47,-125.03 -80.89,-152.41 -37.14,-20.21 -41.94,-54.66 -62.24,-81.35 -7.5,-9.87 -7.91,-9.21 -15.12,-16.22l-13.27 -9.97c11.47,89.92 161.3,357.17 158.08,412.26z"/>
   <path class="fil27" d="M3990.57 3547.4l23.22 -39.07c62.22,4.77 40.89,2.96 97.06,-10.99 4.73,-44.43 -16.83,-51.14 -71.69,-39.02 -69.21,-125.98 -128.66,-39.44 -155.08,-50.61 -32.41,-30.17 4.88,-10.84 -30.88,-40.64 -15.56,-12.98 -38.25,-19.92 -55.2,-29.04l-2.16 9.78c2.2,12.27 -3.98,0.57 4.63,14.63 0.24,0.4 24.37,25.75 27.23,28.75 30.58,32.15 125.45,150.82 162.87,156.21z"/>
   <path class="fil6" d="M501.28 329.83c-30.1,15.19 -26.86,1.94 -36.07,42.38 -10.88,47.85 11.07,94.48 45.62,112.32 22.07,11.38 49.59,13.77 73.32,2.15 81.65,-39.92 7.73,-202.61 -82.87,-156.85z"/>
   <path class="fil6" d="M38.36 1110.14c-97.18,52.47 -19.27,180.23 81.71,136.77 90.03,-38.74 20.92,-192.16 -81.71,-136.77z"/>
   <path class="fil26" d="M3620.19 855.5c29.3,21.96 62.56,28.28 89.11,47.46 19.07,-68.66 209.49,-260.6 237.22,-343 -77.9,33.78 -275.78,296.09 -326.33,295.54z"/>
   <path class="fil3" d="M2658.95 2904.13c13.69,35.42 5.58,2.79 41.85,14.65 -5.3,5.65 -27.1,25.57 -31.62,32.5 -8.6,13.2 -8.38,4.15 13.28,23.35 -9.81,8.65 -34.46,20.29 -24.91,61.61 5.58,24.13 -10.21,16.65 11.61,16.58 24.61,-10.56 95.53,-4.06 126.27,-93.23 1.24,-19.57 0.74,3.72 -6.72,-6.07 -18.9,-24.85 2.31,33.74 -4.86,-24.46 -0.12,-0.95 -0.54,-3.56 -0.7,-4.57l-13.34 -76.2c-0.26,-2.78 -1.48,-3.84 -2.48,-5.65 -26.54,6.32 -39.84,11.69 -58.81,27.17 -34.05,27.78 -21.81,33.75 -49.57,34.32z"/>
   <path class="fil4" d="M2625.01 3486.88c-7.81,46.18 -20.64,35.41 -6.8,76.68 37.36,-1.43 73.93,18.4 139.44,12.59 44.58,-3.96 81.37,-18.61 95.04,-54.11l-200.32 -65.66 -27.36 30.5z"/>
   <path class="fil28" d="M753.67 1524.73l5.6 -67.73c-50.88,-13.88 -104.25,-35.33 -154.99,-51.88 -53.21,-17.33 -113.21,-25.67 -150.97,-55.16l-34.67 6.14c68.77,23.32 46.05,13.53 71.89,67.08 25.64,53.1 53.62,29.21 83.12,37.62l75.72 21.73c50.56,16.17 57.03,10.73 104.3,42.2z"/>
   <path class="fil29" d="M881.41 1091.34l39.16 -0.88c19.33,-33.02 25.03,-88.57 32.48,-131 -69.5,1.41 -33.97,17.5 -97.22,11.06 -98.69,-10.05 -73.44,5.98 -88.01,-32.44 -30.72,-10.24 5.29,-8.21 -23.72,-8.98 -25.44,-0.68 -17.77,-0.27 -31.06,8.03l168.37 154.21z"/>
   <path class="fil30" d="M4478.51 2829.95c-34.05,-11.3 -53.39,-15.51 -90.45,-23.64 -9.25,-2.04 -34.61,-9.14 -45.75,-9.93 -48.53,-3.45 -16.56,-3.75 -31.63,6.3 32.72,34.08 23.64,12.78 31.76,70.35 5.69,40.35 17.5,45.4 51.53,56.06 83.39,26.14 106.35,-29.87 84.54,-99.14z"/>
   <path class="fil31" d="M1072.67 581.33c30.69,18.79 27.65,31.74 56.86,63.43 -3.42,5.95 -2.1,7.13 -11.14,19.72 52.42,2.05 104.52,121.94 118.37,160.95l89.49 -33.44c-13.31,-1.69 -30.09,-3.98 -39.63,-25.11 -9.91,-21.95 -3.82,-20.51 -4.45,-53.73 -40.7,8.4 -47.02,18.37 -58.44,-22.19 -28.98,-102.93 -5.47,-0.17 -106.5,-96.8 -20.5,-19.61 -35.26,-35.35 -58.78,-47.58l14.22 34.75z"/>
   <path class="fil30" d="M4773.48 2016.33c9.39,24.12 25.76,75.66 35.12,86.9 30.47,36.67 61.37,14.2 90.78,12.5 15.81,-33.66 32.32,-71.08 9.87,-109.48 -14.63,-14.96 -28.98,-25.75 -64.87,-20.35 -60.97,9.16 -3.66,23.2 -70.9,30.43z"/>
   <path class="fil32" d="M3992.41 1101.47c15.29,11.6 11.95,10.04 24.45,21.93 1.89,1.8 13.72,13.15 13.98,13.37 10.98,9.14 5.15,5.03 15.81,11.16 40.3,-17.49 89.81,-71.74 129.88,-104.08 31.14,-25.13 107.23,-80.42 125.75,-118.09 -76.19,21.41 -251.32,166.66 -309.87,175.71z"/>
   <path class="fil30" d="M744.99 767.95c26.51,15.01 5.88,-1.04 23.28,20.51 5.08,6.28 23.99,58.66 83.72,32.58 38.34,-16.74 58.47,-59.01 36.35,-111.87l-63.3 -0.32c-37.33,28.06 -57.55,-6.43 -80.05,59.1z"/>
   <path class="fil27" d="M3890.86 3321.83c18.11,51.75 86.99,77.27 138.2,46.03 7.12,-64.54 -34.5,-99.97 -105.48,-91.03 -19.38,21.32 -20.62,17.06 -32.72,45z"/>
   <path class="fil27" d="M625.19 1105.38c-8.82,57.51 0.03,40.27 15.92,80.9 47.28,-6.24 25.23,-13.12 53.32,-18.55 43.03,-8.32 7.61,21.48 52.76,-2.18 -5.18,-17.67 -1.03,-7.55 -8.89,-17.94l-13.36 -14.15c-0.92,-0.95 -3.44,-2.8 -4.89,-4.46 10.53,-20.59 13.38,-31.7 4.3,-59.49 -38.59,-5.95 -17.9,8.45 -66.1,-4.05l5.68 24.34c-20.84,7.09 -27.41,11.19 -38.74,15.58z"/>
   <path class="fil27" d="M1278.7 445.63l8.34 87.67c44.87,11.33 34.94,13.3 66.39,-8.35 2.35,-1.62 7.79,-7.13 10.13,-8.66l39.11 -17.72c-44.67,-61.31 -25.61,-60.67 -75.45,-84.06 -13.25,11.02 -35.67,22.08 -48.52,31.12z"/>
   <path class="fil33" d="M3443.64 3379.09c20.13,0.92 14.1,0.02 37.84,-16.06 1.2,-0.81 3.84,-2.79 5.92,-3.91 63.64,54.69 -16.11,-11.66 20.14,89.1 101.33,15.67 42.84,-51.21 30.74,-66.75 -28.16,-36.12 -22.91,-67.85 -86.01,-65.43l-8.63 63.05z"/>
   <path class="fil19" d="M2481.17 3484.85l-49.66 28.85c29.22,33.96 28.51,25.2 73.89,41.82l31.12 -1.39c5.57,-8.79 22.85,-70.17 26.53,-93.98l-81.88 24.7z"/>
   <path class="fil23" d="M557.74 1189.73c5.96,18 6.84,16.1 11.11,23.06 38.13,62.12 -11.91,-27.32 11.54,16.71l-25.31 34.75c38.39,26.41 34.41,18.11 71.74,3.59l-9.86 -82.84 -59.22 4.73z"/>
   <path class="fil34" d="M4227.56 1220.03c11.09,10.02 14.04,11.19 24.39,21.97 27.38,28.53 -3.33,12.27 30.35,22.32 35.09,-35.49 24.05,-90.85 -40.4,-90.96l-14.34 46.67z"/>
   <path class="fil23" d="M4427.16 2513.02l-53.58 -12.94c-17.12,19.06 -15.16,10.69 -28.66,35.99 17.06,31.61 73.27,75.64 82.24,-23.05z"/>
   <polygon class="fil34" points="2066.49,3808.2 2077.46,3740.21 2036.94,3740.56 2005.62,3739.88 2016.69,3809.35 "/>
   <path class="fil30" d="M598.94 909.76l-2.49 46.61c20.48,9.6 29.76,11.76 57.4,4.77 22.32,-28.96 22.77,-34.93 -6.59,-66.32l-48.32 14.94z"/>
   <path class="fil34" d="M3905.18 3161.72l71.23 29.94c50.98,5.32 6.99,5.11 28.15,-6.88 -15.39,-66.41 -28.7,5.48 -73.3,-58.62 -21.19,-30.45 9.56,-7.97 -24.63,-27.07l-1.45 62.63z"/>
   <path class="fil35" d="M1018.33 547.93l-9.06 49.04c39.33,8.01 40.73,9.21 63.4,-15.64l-14.22 -34.75 -30.49 -3.27 -9.63 4.62z"/>
   <path class="fil36" d="M4380.24 3501.31c43.46,-6.31 50.17,-7.76 51.17,-52.33l-46.61 -3.03 -4.56 55.36z"/>
   <path class="fil37" d="M4780.86 3512.04c19.42,-0.71 21.5,-0.07 34.23,-8.11 20.03,-12.64 17.32,-11.8 17.59,-35.91 -37.61,-11.32 -59.83,4.08 -51.82,44.02z"/>
   <path class="fil35" d="M1327.22 406.38c37.15,3.36 20.05,9.12 48.85,-17.47 1.53,-1.42 3.63,-4.44 4.8,-5.67 1.2,-1.27 3.07,-4.08 4.89,-5.87l-10.21 -22.67c-39.81,5.62 -39.57,20.7 -48.33,51.68z"/>
   <path class="fil36" d="M4511.61 3671.82l-43.16 -5.25c-2.96,29.93 -12.28,44.26 19.49,46.58 27.51,2.02 25.9,-20.1 23.67,-41.33z"/>
   <path class="fil33" d="M4030.15 3538.14c0.2,19.46 -14.97,38.49 28.97,37.48 26.41,-0.6 23.88,-14.73 20.64,-38.57l-49.61 1.09z"/>
   <polygon class="fil35" points="573.97,2161.62 613.53,2160.02 615,2118.55 569.74,2117.99 "/>
   <path class="fil36" d="M4454.06 2160.08l-6.24 -25.98c-10.96,-4.39 -15.7,-10.8 -42.9,-9.44 -5.86,51.59 12.57,47.39 49.14,35.42z"/>
   <path class="fil36" d="M896.18 2251c2.84,-40.43 7.62,-36.07 -34.25,-33.21 4.29,34.62 -0.41,32.82 34.25,33.21z"/>
   <path class="fil38" d="M4693.77 1415.35c22.73,-16.5 24.56,-9.58 9.35,-38.15l-24.89 1.25c-2.99,44.47 -5.8,23.6 15.54,36.9z"/>
  </g>
 </g>
</svg>
